<svg version="1.1" id="id_S12" xmlns="http://www.w3.org/2000/svg" xmlns:xlink="http://www.w3.org/1999/xlink" x="0px" y="0px"
	 viewBox="0 0 75.54 75.54" style="enable-background:new 0 0 75.54 75.54;" xml:space="preserve">
<style type="text/css">
	.st0{fill:#FFFFFF;}
	.st1{fill:none;stroke:#C6C6C6;}
	.st2{fill:none;stroke:#98BC1F;stroke-width:4;stroke-linecap:round;stroke-linejoin:round;}
	.st3{fill:none;stroke:#B15922;stroke-width:4;stroke-linecap:round;stroke-linejoin:round;}
	.st4{fill:none;stroke:#009FE3;stroke-width:4;stroke-linecap:round;stroke-linejoin:round;}
	.st5{fill:#B15922;}
	.st6{fill:#98BC1F;}
	.st7{fill:#B2B2B2;}
	.st8{fill:#FAB200;}
</style>
<polygon class="st0" points="0.14,0.47 0.14,76 75.68,76 75.68,0.47 0.14,0.47 "/>
<polygon class="st1" points="0.14,0.47 0.14,76 75.68,76 75.68,0.47 0.14,0.47 "/>
<path class="st2" d="M40.03,34.26v24.36 M31.35,36.26v22.36 M21.26,42.81v15.81"/>
<line class="st3" x1="6.56" y1="66.38" x2="48.37" y2="66.38"/>
<line class="st4" x1="57.19" y1="66.38" x2="70.69" y2="66.38"/>
<path class="st5" d="M9.11,59.4c3.31,0,6-2.69,6-6s-2.69-6-6-6s-6,2.69-6,6S5.8,59.4,9.11,59.4z"/>
<path class="st6" d="M40.81,29.7c5.96,0,10.8-4.84,10.8-10.8S46.78,8.1,40.81,8.1c-5.96,0-10.8,4.84-10.8,10.8v0
	C30.01,24.86,34.85,29.7,40.81,29.7z"/>
<path class="st7" d="M48.81,38.95c-1.56,0-2.83,1.27-2.83,2.83v3.65c0,1.56,1.27,2.83,2.83,2.84h10.57c1.57,0,2.84-1.27,2.84-2.84
	v-3.65c-0.01-1.56-1.28-2.83-2.84-2.83H48.81z"/>
<path class="st7" d="M66.98,38.95c-1.56,0-2.83,1.27-2.84,2.83v3.65c0,1.57,1.27,2.84,2.84,2.84h2.87c1.57,0,2.84-1.27,2.84-2.84
	v-3.65c-0.01-1.56-1.28-2.83-2.84-2.83H66.98z"/>
<path class="st7" d="M69.85,50.58c1.56,0,2.83,1.27,2.84,2.83v3.65c0,1.57-1.27,2.84-2.84,2.84H59.28
	c-1.56-0.01-2.83-1.28-2.83-2.84v-3.65c0-1.56,1.27-2.83,2.83-2.83H69.85z"/>
<path class="st7" d="M51.69,50.58c1.56,0,2.83,1.27,2.84,2.83v3.65c0,1.57-1.27,2.84-2.84,2.84h-2.88
	c-1.56-0.01-2.83-1.28-2.83-2.84v-3.65c0-1.56,1.27-2.83,2.83-2.83H51.69z"/>
<path class="st8" d="M21.05,38.24c3.87,0,7-3.13,7-7s-3.13-7-7-7s-7,3.13-7,7l0,0C14.05,35.1,17.19,38.24,21.05,38.24z"/>
<path class="st8" d="M21.05,27.75c3.13,0.01,5.67-2.53,5.68-5.66c0.01-3.13-2.53-5.67-5.66-5.68c-3.13-0.01-5.67,2.53-5.68,5.66
	c0,0,0,0.01,0,0.01C15.39,25.2,17.93,27.74,21.05,27.75z"/>
<path class="st8" d="M21.05,18.03c2.35,0.01,4.26-1.9,4.27-4.25c0.01-2.35-1.9-4.26-4.25-4.27c-2.35-0.01-4.26,1.9-4.27,4.25
	c0,0.01,0,0.01,0,0.02C16.81,16.12,18.71,18.02,21.05,18.03z"/>
</svg>
