<svg version="1.1" id="id_S10" xmlns="http://www.w3.org/2000/svg" xmlns:xlink="http://www.w3.org/1999/xlink" x="0px" y="0px"
	 viewBox="0 0 75.54 75.54" style="enable-background:new 0 0 75.54 75.54;" xml:space="preserve">
<style type="text/css">
	.st0{fill:#FFFFFF;}
	.st1{fill:none;stroke:#C6C6C6;}
	.st2{fill:none;stroke:#B15922;stroke-width:4;stroke-linecap:round;stroke-linejoin:round;}
	.st3{fill:none;stroke:#98BC1F;stroke-width:4;stroke-linecap:round;stroke-linejoin:round;}
	.st4{fill:#FAB200;}
	.st5{fill:#98BC1F;}
	.st6{fill:#009FE3;}
</style>
<polygon class="st0" points="0.14,0.46 0.14,76 75.68,76 75.68,0.46 0.14,0.46 "/>
<polygon class="st1" points="0.14,0.46 0.14,76 75.68,76 75.68,0.46 0.14,0.46 "/>
<line class="st2" x1="43.66" y1="34" x2="43.66" y2="61.28"/>
<path class="st3" d="M11.19,46.56v14.72 M32.38,45.47v15.81"/>
<line class="st2" x1="8.36" y1="69.05" x2="64.66" y2="69.05"/>
<path class="st4" d="M31.86,40.78c3.31,0,6-2.69,6-6s-2.69-6-6-6s-6,2.69-6,6S28.55,40.78,31.86,40.78z"/>
<path class="st5" d="M21.74,26.46c3.31,0,6-2.69,6-6s-2.69-6-6-6s-6,2.69-6,6S18.43,26.46,21.74,26.46z"/>
<path class="st4" d="M11.19,42.41c3.31,0,6-2.69,6-6s-2.69-6-6-6s-6,2.69-6,6S7.88,42.41,11.19,42.41z"/>
<path class="st6" d="M53.5,62.07c3.31,0,6-2.69,6-6s-2.69-6-6-6s-6,2.69-6,6S50.19,62.07,53.5,62.07z"/>
<path class="st5" d="M44.18,29.17c6.56,0,11.88-5.32,11.88-11.88S50.74,5.41,44.18,5.41c-6.56,0-11.88,5.32-11.88,11.88
	c-0.01,6.56,5.3,11.87,11.86,11.88C44.17,29.17,44.18,29.17,44.18,29.17z"/>
<line class="st3" x1="64.17" y1="40.23" x2="64.17" y2="61.28"/>
<line class="st2" x1="21.79" y1="30.81" x2="21.79" y2="61.28"/>
<path class="st4" d="M63.64,35.33c3.87,0,7-3.13,7-7s-3.13-7-7-7s-7,3.13-7,7S59.78,35.33,63.64,35.33z"/>
<path class="st4" d="M63.64,24.84c3.13,0,5.67-2.54,5.67-5.67c0-3.13-2.54-5.67-5.67-5.67c-3.13,0-5.67,2.54-5.67,5.67l0,0
	C57.97,22.3,60.51,24.84,63.64,24.84z"/>
<path class="st4" d="M63.64,15.12c2.35,0.01,4.26-1.9,4.27-4.25c0.01-2.35-1.9-4.26-4.25-4.27c-2.35-0.01-4.26,1.9-4.27,4.25
	c0,0.01,0,0.01,0,0.02C59.4,13.22,61.3,15.12,63.64,15.12z"/>
</svg>
