<svg version="1.1" id="id_S13" xmlns="http://www.w3.org/2000/svg" xmlns:xlink="http://www.w3.org/1999/xlink" x="0px" y="0px"
	 viewBox="0 0 75.54 75.54" style="enable-background:new 0 0 75.54 75.54;" xml:space="preserve">
<style type="text/css">
	.st0{fill:#FFFFFF;}
	.st1{fill:none;stroke:#C6C6C6;}
	.st2{fill:none;stroke:#B15922;stroke-width:4;stroke-linecap:round;stroke-linejoin:round;}
	.st3{fill:none;stroke:#009FE3;stroke-width:4;stroke-linecap:round;stroke-linejoin:round;}
	.st4{fill:#98BC1F;}
</style>
<polygon class="st0" points="0.14,0.46 0.14,76 75.68,76 75.68,0.46 0.14,0.46 "/>
<polygon class="st1" points="0.14,0.46 0.14,76 75.68,76 75.68,0.46 0.14,0.46 "/>
<line class="st2" x1="22.08" y1="60.18" x2="70.69" y2="60.18"/>
<line class="st3" x1="5.93" y1="60.18" x2="27.25" y2="60.18"/>
<path class="st4" d="M9.68,54.42c2.95,0,5.34-2.68,5.34-6s-2.39-6-5.34-6s-5.35,2.68-5.35,6S6.73,54.42,9.68,54.42z"/>
<path class="st4" d="M45.13,54.42c4.38,0,7.93-4,7.93-8.88s-3.55-8.87-7.93-8.87s-7.92,4-7.92,8.87S40.76,54.42,45.13,54.42z"/>
<path class="st4" d="M30.78,54.42c5.32,0,9.64-4.84,9.64-10.8s-4.32-10.8-9.64-10.8s-9.64,4.83-9.64,10.8S25.45,54.42,30.78,54.42z"
	/>
<path class="st4" d="M21.22,54.42c5.52,0,10-5,10-11.2s-4.47-11.19-10-11.19s-10,5-10,11.19S15.7,54.42,21.22,54.42z"/>
<path class="st4" d="M29.25,36.67c5.52,0,10-5,10-11.2s-4.47-11.19-10-11.19s-10,5-10,11.19S23.73,36.67,29.25,36.67z"/>
<path class="st4" d="M60.12,54.42c6.8,0,12.31-6.18,12.31-13.79s-5.51-13.79-12.31-13.79S47.8,33.01,47.8,40.63
	S53.32,54.42,60.12,54.42z"/>
<path class="st4" d="M43.37,47.7c6.8,0,12.32-6.17,12.32-13.79s-5.52-13.79-12.32-13.79s-12.31,6.17-12.31,13.79
	S36.57,47.7,43.37,47.7z"/>
</svg>
