<svg version="1.1" id="id_S3" xmlns="http://www.w3.org/2000/svg" xmlns:xlink="http://www.w3.org/1999/xlink" x="0px" y="0px"
	 viewBox="0 0 75.54 75.54" style="enable-background:new 0 0 75.54 75.54;" xml:space="preserve">
<style type="text/css">
	.st0{fill:#FFFFFF;}
	.st1{fill:none;stroke:#C6C6C6;}
	.st2{fill:none;stroke:#878787;stroke-width:4;stroke-linecap:round;stroke-linejoin:round;}
	.st3{fill:#98BC1F;}
	.st4{fill:none;stroke:#B15922;stroke-width:4;stroke-linecap:round;stroke-linejoin:round;}
	.st5{fill:none;stroke:#98BC1F;stroke-width:4;stroke-linecap:round;stroke-linejoin:round;}
</style>
<polygon class="st0" points="0.14,0.47 0.14,76 75.68,76 75.68,0.47 0.14,0.47 "/>
<polygon class="st1" points="0.14,0.47 0.14,76 75.68,76 75.68,0.47 0.14,0.47 "/>
<line class="st2" x1="7.65" y1="46.6" x2="14.5" y2="50.99"/>
<path class="st3" d="M66.76,48.48c3.13,0,5.67-2.54,5.67-5.67s-2.54-5.67-5.67-5.67c-3.13,0-5.67,2.54-5.67,5.67
	C61.09,45.94,63.63,48.48,66.76,48.48L66.76,48.48z"/>
<path class="st3" d="M55.57,71.77c4.7,0.01,8.51-3.8,8.52-8.5c0.01-4.7-3.8-8.51-8.5-8.52c-4.7-0.01-8.51,3.8-8.52,8.5
	c0,0,0,0.01,0,0.01C47.07,67.95,50.88,71.76,55.57,71.77z"/>
<line class="st4" x1="11.54" y1="29.98" x2="18.39" y2="34.37"/>
<path class="st5" d="M26.09,38.72l21.7,13.32 M44.72,32.75l11.9,7.42"/>
<line class="st2" x1="56.39" y1="31.03" x2="57.55" y2="32"/>
<path class="st5" d="M48.95,43.82L67.5,55.26 M29.31,49.26l10.07,6.33"/>
<path class="st4" d="M27.26,13.53l22.57,13.84 M4.83,35.77l18.22,10.06 M5.95,9.48l32.09,19.55"/>
<line class="st2" x1="9.73" y1="20.27" x2="41.82" y2="39.82"/>
<line class="st4" x1="23.91" y1="54.99" x2="39.79" y2="64.8"/>
</svg>
