<svg version="1.1" id="id_S15" xmlns="http://www.w3.org/2000/svg" xmlns:xlink="http://www.w3.org/1999/xlink" x="0px" y="0px"
	 viewBox="0 0 75.54 75.54" style="enable-background:new 0 0 75.54 75.54;" xml:space="preserve">
<style type="text/css">
	.st0{fill:#FFFFFF;}
	.st1{fill:none;stroke:#C6C6C6;}
	.st2{fill:#9F2538;}
	.st3{fill:none;stroke:#FAB200;stroke-width:3;}
	.st4{fill:none;stroke:#9F2538;stroke-width:2;stroke-linecap:round;stroke-linejoin:round;}
	.st5{fill:none;stroke:#9F2538;stroke-width:4;stroke-linecap:round;stroke-linejoin:round;}
	.st6{fill:none;stroke:#3FA535;}
	.st7{fill:none;stroke:#98BC1F;stroke-width:4;stroke-linecap:round;stroke-linejoin:round;}
	.st8{fill:#FAB200;}
	.st9{fill:#009FE3;}
	.st10{fill:none;stroke:#FAB200;stroke-width:4;stroke-linecap:round;stroke-linejoin:round;}
</style>
<polygon class="st0" points="0.14,0.46 0.14,76 75.68,76 75.68,0.46 0.14,0.46 "/>
<polygon class="st1" points="0.14,0.46 0.14,76 75.68,76 75.68,0.46 0.14,0.46 "/>
<path class="st2" d="M67.96,30.14c-0.86-1.58-2.41-2.67-4.19-2.94c0.27-1.51,0.02-3.06-0.7-4.41c-1.57-3.44-5.64-4.95-9.08-3.38
	c-3.44,1.57-4.95,5.64-3.38,9.08c0.13,0.29,0.29,0.57,0.46,0.84c1.25,2.29,4.32,4.34,4.8,5.23c3.61,2.36,7,5,9.8,3.45
	c2.82-1.53,3.86-5.05,2.33-7.86c0,0,0,0,0-0.01H67.96z"/>
<path class="st3" d="M67.96,30.14c-0.86-1.58-2.41-2.67-4.19-2.94c0.27-1.51,0.02-3.06-0.7-4.41c-1.57-3.44-5.64-4.95-9.08-3.38
	c-3.44,1.57-4.95,5.64-3.38,9.08c0.13,0.29,0.29,0.57,0.46,0.84c1.25,2.29,4.32,4.34,4.8,5.23c3.61,2.36,7,5,9.8,3.45
	c2.82-1.53,3.86-5.05,2.33-7.86c0,0,0,0,0-0.01H67.96z"/>
<path class="st2" d="M62.9,39c-1.47-2.69-11.32-7.7-16.61-5c-3.22,1.97-4.23,6.19-2.25,9.41c1.83,2.99,5.62,4.11,8.78,2.59
	c0.22-0.13,0.42-0.27,0.62-0.42c2.13,2.4,5.8,2.61,8.2,0.48c2.01-1.79,2.53-4.72,1.26-7.09L62.9,39z"/>
<path class="st3" d="M62.9,39c-1.47-2.69-11.32-7.7-16.61-5c-3.22,1.97-4.23,6.19-2.25,9.41c1.83,2.99,5.62,4.11,8.78,2.59
	c0.22-0.13,0.42-0.27,0.62-0.42c2.13,2.4,5.8,2.61,8.2,0.48c2.01-1.79,2.53-4.72,1.26-7.09L62.9,39z"/>
<path class="st4" d="M46.67,27.96l-6.85-7.33 M45.67,29.88l-9.9-1.47"/>
<line class="st5" x1="67.18" y1="41.03" x2="46.92" y2="29.2"/>
<path class="st6" d="M40.06,21.07"/>
<path class="st6" d="M73.98,23.36"/>
<path class="st7" d="M51.5,54.21v15.6 M40.7,50.99v19.22 M29.9,54v15.81"/>
<path class="st8" d="M29.73,49.31c3.31,0,6-2.69,6-6s-2.69-6-6-6s-6,2.69-6,6S26.42,49.31,29.73,49.31z"/>
<path class="st9" d="M15.38,17.46c3.65,0.01,6.61-2.95,6.62-6.6c0.01-3.65-2.95-6.61-6.6-6.62c-3.65-0.01-6.61,2.95-6.62,6.6
	c0,0.01,0,0.01,0,0.02C8.79,14.5,11.74,17.46,15.38,17.46z"/>
<path class="st9" d="M25.61,33.12c3.65,0,6.61-2.96,6.61-6.61s-2.96-6.61-6.61-6.61c-3.65,0-6.61,2.96-6.61,6.61v0
	C19,30.16,21.96,33.12,25.61,33.12z"/>
<line class="st10" x1="39.91" y1="9.2" x2="30.45" y2="12.87"/>
<path class="st8" d="M27.97,19.54c3.13,0.01,5.67-2.53,5.68-5.66c0.01-3.13-2.53-5.67-5.66-5.68s-5.67,2.53-5.68,5.66
	c0,0,0,0.01,0,0.01C22.31,17,24.85,19.54,27.97,19.54z"/>
<path class="st8" d="M19.63,24.68c3.13,0.01,5.67-2.53,5.68-5.66c0.01-3.13-2.53-5.67-5.66-5.68c-3.13-0.01-5.67,2.53-5.68,5.66
	c0,0.01,0,0.01,0,0.02C13.97,22.15,16.51,24.68,19.63,24.68L19.63,24.68z"/>
<path class="st8" d="M11.94,28.45c2.61,0,4.72-2.11,4.72-4.72c0-2.61-2.11-4.72-4.72-4.72c-2.61,0-4.72,2.11-4.72,4.72
	c0,0,0,0.01,0,0.01C7.23,26.34,9.34,28.45,11.94,28.45z"/>
</svg>
