<svg version="1.1" id="id_K12" xmlns="http://www.w3.org/2000/svg" xmlns:xlink="http://www.w3.org/1999/xlink" x="0px" y="0px"
	 viewBox="0 0 75.54 75.54" style="enable-background:new 0 0 75.54 75.54;" xml:space="preserve">
<style type="text/css">
	.st0{fill:#FFFFFF;}
	.st1{fill:none;stroke:#C6C6C6;}
	.st2{fill:none;stroke:#98BC1F;stroke-width:4;stroke-linecap:round;stroke-linejoin:round;}
	.st3{fill:none;stroke:#B15922;stroke-width:4;stroke-linecap:round;stroke-linejoin:round;}
	.st4{fill:none;stroke:#009FE3;stroke-width:4;stroke-linecap:round;stroke-linejoin:round;}
	.st5{fill:#B15922;}
	.st6{fill:none;stroke:#FFFFFF;stroke-width:4;stroke-linecap:round;stroke-linejoin:round;}
	.st7{fill:none;stroke:#9F2538;stroke-width:4;stroke-linecap:round;stroke-linejoin:round;}
</style>
<polygon class="st0" points="0.14,0.47 0.14,76 75.68,76 75.68,0.47 0.14,0.47 "/>
<polygon class="st1" points="0.14,0.47 0.14,76 75.68,76 75.68,0.47 0.14,0.47 "/>
<path class="st2" d="M8.5,31.9v29.3 M17.89,44.68v15.81 M28.34,44.68v15.81"/>
<line class="st3" x1="5.61" y1="68.26" x2="38.7" y2="68.26"/>
<line class="st4" x1="46.21" y1="68.26" x2="71.08" y2="68.26"/>
<path class="st5" d="M53.3,61.58c10.24,0,18.55-8.31,18.55-18.55S63.55,24.48,53.3,24.48c-10.24,0-18.55,8.31-18.55,18.55
	c0,0,0,0.01,0,0.01C34.76,53.28,43.06,61.58,53.3,61.58z"/>
<path class="st6" d="M44.03,46.84c3.07,5.2,9.77,6.92,14.97,3.85c1.59-0.94,2.91-2.26,3.85-3.85"/>
<path class="st0" d="M45.99,40.82c1.57,0.01,2.84-1.26,2.85-2.83c0.01-1.57-1.26-2.84-2.83-2.85c-1.57-0.01-2.84,1.26-2.85,2.83
	c0,0.01,0,0.01,0,0.02C43.17,39.55,44.43,40.81,45.99,40.82z"/>
<path class="st0" d="M60.61,40.82c1.57,0,2.84-1.27,2.84-2.84c0-1.57-1.27-2.84-2.84-2.84s-2.84,1.27-2.84,2.84c0,0,0,0.01,0,0.01
	c0,1.56,1.27,2.83,2.83,2.83C60.61,40.82,60.61,40.82,60.61,40.82z"/>
<path class="st7" d="M36.5,26.29c0,0-5.24-16.22-16.65-17.72C9.57,7.23,7.38,9.85,5.54,13.11s-1.12,8.84,6.8,11.1
	c7.44,2.11,8.23-2.24,15.31-1.89c3.13,0.16,8.85,4,8.85,4V26.29z"/>
</svg>
