<svg version="1.1" id="id_K11" xmlns="http://www.w3.org/2000/svg" xmlns:xlink="http://www.w3.org/1999/xlink" x="0px" y="0px"
	 viewBox="0 0 75.54 75.54" style="enable-background:new 0 0 75.54 75.54;" xml:space="preserve">
<style type="text/css">
	.st0{fill:#FFFFFF;}
	.st1{fill:none;stroke:#C6C6C6;}
	.st2{fill:none;stroke:#98BC1F;stroke-width:4;stroke-linecap:round;stroke-linejoin:round;}
	.st3{fill:none;stroke:#B15922;stroke-width:4;stroke-linecap:round;stroke-linejoin:round;}
	.st4{fill:none;stroke:#009FE3;stroke-width:4;stroke-linecap:round;stroke-linejoin:round;}
	.st5{fill:#FAB200;}
	.st6{fill:#98BC1F;}
	.st7{fill:#B15922;}
	.st8{fill:none;stroke:#FFFFFF;stroke-width:4;stroke-linecap:round;stroke-linejoin:round;}
	.st9{fill:#9F2538;}
</style>
<polygon class="st0" points="0.14,0.46 0.14,76 75.68,76 75.68,0.46 0.14,0.46 "/>
<polygon class="st1" points="0.14,0.46 0.14,76 75.68,76 75.68,0.46 0.14,0.46 "/>
<path class="st2" d="M21.76,35.67v24.36 M10.96,53.63v6.4"/>
<line class="st3" x1="10.82" y1="67.79" x2="38.18" y2="67.79"/>
<line class="st4" x1="45.69" y1="67.79" x2="70.05" y2="67.79"/>
<path class="st5" d="M10.97,45.46c3.31,0,6-2.69,6-6s-2.69-6-6-6s-6,2.69-6,6S7.66,45.46,10.97,45.46z"/>
<path class="st6" d="M22.5,31.09c5.96,0,10.8-4.84,10.8-10.8s-4.84-10.8-10.8-10.8c-5.96,0-10.8,4.84-10.8,10.8v0
	C11.7,26.26,16.54,31.09,22.5,31.09z"/>
<path class="st7" d="M49.24,61.83c10.24,0,18.55-8.31,18.55-18.55s-8.31-18.55-18.55-18.55c-10.24,0-18.55,8.31-18.55,18.55v0
	c-0.01,10.24,8.29,18.54,18.53,18.55C49.23,61.83,49.24,61.83,49.24,61.83z"/>
<path class="st8" d="M39.97,47.09c2,3.26,5.53,5.28,9.35,5.36c3.86-0.06,7.43-2.08,9.47-5.36"/>
<path class="st0" d="M41.93,41.07c1.57,0,2.84-1.27,2.84-2.84s-1.27-2.84-2.84-2.84s-2.84,1.27-2.84,2.84l0,0
	C39.09,39.8,40.37,41.07,41.93,41.07z"/>
<path class="st0" d="M56.55,41.07c1.57,0,2.84-1.27,2.84-2.84s-1.27-2.84-2.84-2.84s-2.84,1.27-2.84,2.84l0,0
	C53.71,39.8,54.99,41.07,56.55,41.07z"/>
<path class="st9" d="M67.08,5.24c-3.57,0-5,2-5.4,2.61c-1.2-1.77-3.26-2.77-5.4-2.61c-4.2,0-6.13,5.8-3.63,9.29s9,10.31,9,10.31
	s6.53-6.83,9-10.31s0.57-9.29-3.62-9.29H67.08z"/>
</svg>
