<svg version="1.1" id="id_S14" xmlns="http://www.w3.org/2000/svg" xmlns:xlink="http://www.w3.org/1999/xlink" x="0px" y="0px"
	 viewBox="0 0 75.54 75.54" style="enable-background:new 0 0 75.54 75.54;" xml:space="preserve">
<style type="text/css">
	.st0{fill:#FFFFFF;}
	.st1{fill:none;stroke:#C6C6C6;}
	.st2{fill:#98BC1F;}
	.st3{fill:none;stroke:#009FE3;stroke-width:5;stroke-linecap:round;stroke-linejoin:round;}
	.st4{fill:#FAB200;}
	.st5{fill:#009FE3;}
	.st6{fill:none;stroke:#009FE3;stroke-width:4;stroke-linecap:round;}
</style>
<polygon class="st0" points="0.14,0.46 0.14,76 75.68,76 75.68,0.46 0.14,0.46 "/>
<polygon class="st1" points="0.14,0.46 0.14,76 75.68,76 75.68,0.46 0.14,0.46 "/>
<path class="st2" d="M19.01,36.37c6.33,0,11.46-5.13,11.46-11.46c0-6.33-5.13-11.46-11.46-11.46c-6.33,0-11.46,5.13-11.46,11.46
	c0,0,0,0,0,0C7.55,31.24,12.68,36.37,19.01,36.37z"/>
<path class="st2" d="M50.08,38.05c3.69,0,6.69-3,6.69-6.69s-3-6.69-6.69-6.69s-6.69,3-6.69,6.69S46.39,38.05,50.08,38.05
	L50.08,38.05z"/>
<path class="st3" d="M8.63,66.23c0,0,5.95-4.89,17.2-5s17.19,6.46,29.57,6.46c10.78,0,13.73-4.33,13.73-4.33"/>
<path class="st4" d="M63.71,27.68c3.31,0,6-2.69,6-6s-2.69-6-6-6s-6,2.69-6,6S60.4,27.68,63.71,27.68z"/>
<path class="st2" d="M11.75,54.37c3.13,0,5.67-2.54,5.67-5.67c0-3.13-2.54-5.67-5.67-5.67c-3.13,0-5.67,2.54-5.67,5.67
	c0,0,0,0.01,0,0.01c0,3.13,2.53,5.66,5.66,5.66C11.75,54.37,11.75,54.37,11.75,54.37z"/>
<path class="st5" d="M61.34,46.67c0,0-13.06,9.27-25.1,6s-13.06-9.62-13.06-9.62s4.08-5,16.12-1.81s18.71,17.79,18.71,17.79
	 M61.35,46.47l-3.55,13"/>
<path class="st6" d="M61.34,46.67c0,0-13.06,9.27-25.1,6s-13.06-9.62-13.06-9.62s4.08-5,16.12-1.81s18.71,17.79,18.71,17.79
	 M61.35,46.47l-3.55,13"/>
<path class="st4" d="M39.81,22.97c3.31,0,6-2.69,6-6s-2.69-6-6-6s-6,2.69-6,6S36.5,22.97,39.81,22.97z"/>
</svg>
