<svg version="1.1" id="id_V2" xmlns="http://www.w3.org/2000/svg" xmlns:xlink="http://www.w3.org/1999/xlink" x="0px" y="0px"
	 viewBox="0 0 75.54 75.54" style="enable-background:new 0 0 75.54 75.54;" xml:space="preserve">
<style type="text/css">
	.st0{fill:#FFFFFF;}
	.st1{fill:none;stroke:#C6C6C6;}
	.st2{fill:none;stroke:#B15922;stroke-width:14.24;stroke-linecap:round;stroke-linejoin:round;}
	.st3{fill:#98BC1F;}
	.st4{fill:none;stroke:#98BC1F;stroke-width:0.89;}
</style>
<polygon class="st0" points="0.14,0.47 0.14,76 75.68,76 75.68,0.47 0.14,0.47 "/>
<polygon class="st1" points="0.14,0.47 0.14,76 75.68,76 75.68,0.47 0.14,0.47 "/>
<line class="st2" x1="36.51" y1="43.5" x2="36.51" y2="65.56"/>
<path class="st3" d="M19.93,39.97c5.22,0,9.46-4.24,9.46-9.46c0-5.22-4.24-9.46-9.46-9.46c-5.22,0-9.46,4.24-9.46,9.46c0,0,0,0,0,0
	C10.47,35.73,14.71,39.97,19.93,39.97z"/>
<path class="st4" d="M19.93,39.97c5.22,0,9.46-4.24,9.46-9.46c0-5.22-4.24-9.46-9.46-9.46c-5.22,0-9.46,4.24-9.46,9.46c0,0,0,0,0,0
	C10.47,35.73,14.71,39.97,19.93,39.97z"/>
<path class="st3" d="M29.39,25.77c5.22,0,9.46-4.24,9.46-9.46c0-5.22-4.24-9.46-9.46-9.46c-5.22,0-9.46,4.24-9.46,9.46c0,0,0,0,0,0
	C19.93,21.53,24.17,25.77,29.39,25.77z"/>
<path class="st4" d="M29.39,25.77c5.22,0,9.46-4.24,9.46-9.46c0-5.22-4.24-9.46-9.46-9.46c-5.22,0-9.46,4.24-9.46,9.46c0,0,0,0,0,0
	C19.93,21.53,24.17,25.77,29.39,25.77z"/>
<path class="st3" d="M44.08,23.16c5.22,0,9.46-4.24,9.46-9.46c0-5.22-4.24-9.46-9.46-9.46c-5.22,0-9.46,4.24-9.46,9.46c0,0,0,0,0,0
	c-0.01,5.22,4.22,9.45,9.44,9.46C44.07,23.16,44.08,23.16,44.08,23.16z"/>
<path class="st4" d="M44.08,23.16c5.22,0,9.46-4.24,9.46-9.46c0-5.22-4.24-9.46-9.46-9.46c-5.22,0-9.46,4.24-9.46,9.46c0,0,0,0,0,0
	c-0.01,5.22,4.22,9.45,9.44,9.46C44.07,23.16,44.08,23.16,44.08,23.16z"/>
<path class="st3" d="M55.44,29.61c5.22-0.01,9.46-4.25,9.45-9.47s-4.25-9.46-9.47-9.45c-5.22,0.01-9.45,4.24-9.45,9.46
	c0,5.22,4.24,9.46,9.46,9.46C55.44,29.61,55.44,29.61,55.44,29.61z"/>
<path class="st4" d="M55.44,29.61c5.22-0.01,9.46-4.25,9.45-9.47s-4.25-9.46-9.47-9.45c-5.22,0.01-9.45,4.24-9.45,9.46
	c0,5.22,4.24,9.46,9.46,9.46C55.44,29.61,55.44,29.61,55.44,29.61z"/>
<path class="st3" d="M53.09,42.07c5.22,0,9.46-4.24,9.46-9.46c0-5.22-4.24-9.46-9.46-9.46c-5.22,0-9.46,4.24-9.46,9.46c0,0,0,0,0,0
	C43.63,37.83,47.87,42.07,53.09,42.07z"/>
<path class="st4" d="M53.09,42.07c5.22,0,9.46-4.24,9.46-9.46c0-5.22-4.24-9.46-9.46-9.46c-5.22,0-9.46,4.24-9.46,9.46c0,0,0,0,0,0
	C43.63,37.83,47.87,42.07,53.09,42.07z"/>
<path class="st3" d="M36.5,33.62c5.22,0,9.46-4.24,9.46-9.46c0-5.22-4.24-9.46-9.46-9.46c-5.22,0-9.46,4.24-9.46,9.46c0,0,0,0,0,0
	c-0.01,5.22,4.22,9.45,9.44,9.46C36.49,33.62,36.5,33.62,36.5,33.62z"/>
<path class="st4" d="M36.5,33.62c5.22,0,9.46-4.24,9.46-9.46c0-5.22-4.24-9.46-9.46-9.46c-5.22,0-9.46,4.24-9.46,9.46c0,0,0,0,0,0
	c-0.01,5.22,4.22,9.45,9.44,9.46C36.49,33.62,36.5,33.62,36.5,33.62z"/>
</svg>
