<svg version="1.1" id="id_S2" xmlns="http://www.w3.org/2000/svg" xmlns:xlink="http://www.w3.org/1999/xlink" x="0px" y="0px"
	 viewBox="0 0 75.54 75.54" style="enable-background:new 0 0 75.54 75.54;" xml:space="preserve">
<style type="text/css">
	.st0{fill:#FFFFFF;}
	.st1{fill:none;stroke:#C6C6C6;}
	.st2{fill:none;stroke:#009FE3;stroke-width:4;stroke-linecap:round;}
	.st3{fill:#B15922;}
	.st4{fill:#98BC1F;}
	.st5{fill:none;stroke:#98BC1F;stroke-width:0.67;}
	.st6{fill:none;stroke:#98BC1F;stroke-width:0.89;}
</style>
<polygon class="st0" points="0.14,0.47 0.14,76 75.68,76 75.68,0.47 0.14,0.47 "/>
<polygon class="st1" points="0.14,0.47 0.14,76 75.68,76 75.68,0.47 0.14,0.47 "/>
<path class="st2" d="M5.2,36.18h17c0,0,9.36,0,9.36-6.89s-7.16-7.41-7.71-7.41s-7.15,1.59-7.15,6.88 M33,38.46h24
	c0,0,6.32-1.41,6.32-5.68s-4.83-5.3-5.2-5.3s-4.84,1-4.84,4.27 M15.78,44.55h16.55c0,0,9.35,0,9.35,6.89s-7.15,7.41-7.7,7.41
	s-7.16-1.58-7.16-6.88"/>
<path class="st3" d="M43.77,28.38c2.35,0,4.25-1.9,4.25-4.25s-1.9-4.25-4.25-4.25s-4.25,1.9-4.25,4.25l0,0
	C39.52,26.47,41.43,28.38,43.77,28.38z"/>
<path class="st3" d="M68.5,47.56c2.27,0,4.11-1.84,4.11-4.11s-1.84-4.11-4.11-4.11s-4.11,1.84-4.11,4.11v0
	C64.39,45.72,66.23,47.56,68.5,47.56z"/>
<path class="st4" d="M61.08,21.81c3.92,0,7.1-3.18,7.1-7.1c0-3.92-3.18-7.1-7.1-7.1c-3.92,0-7.1,3.18-7.1,7.1c0,0,0,0.01,0,0.01
	c0,3.92,3.17,7.09,7.09,7.09C61.08,21.81,61.08,21.81,61.08,21.81z"/>
<path class="st5" d="M61.08,21.81c3.92,0,7.1-3.18,7.1-7.1c0-3.92-3.18-7.1-7.1-7.1c-3.92,0-7.1,3.18-7.1,7.1c0,0,0,0.01,0,0.01
	c0,3.92,3.17,7.09,7.09,7.09C61.08,21.81,61.08,21.81,61.08,21.81z"/>
<path class="st4" d="M56.5,68.7c5.22,0,9.46-4.24,9.46-9.46c0-5.22-4.24-9.46-9.46-9.46c-5.22,0-9.46,4.24-9.46,9.46c0,0,0,0,0,0
	c-0.01,5.22,4.22,9.45,9.44,9.46C56.49,68.7,56.5,68.7,56.5,68.7z"/>
<path class="st6" d="M56.5,68.7c5.22,0,9.46-4.24,9.46-9.46c0-5.22-4.24-9.46-9.46-9.46c-5.22,0-9.46,4.24-9.46,9.46c0,0,0,0,0,0
	c-0.01,5.22,4.22,9.45,9.44,9.46C56.49,68.7,56.5,68.7,56.5,68.7z"/>
<path class="st3" d="M17.99,59.12c2.27,0,4.11-1.84,4.11-4.11s-1.84-4.11-4.11-4.11s-4.11,1.84-4.11,4.11v0
	C13.88,57.28,15.72,59.12,17.99,59.12z"/>
</svg>
