<svg version="1.1" id="id_S5" xmlns="http://www.w3.org/2000/svg" xmlns:xlink="http://www.w3.org/1999/xlink" x="0px" y="0px"
	 viewBox="0 0 75.54 75.54" style="enable-background:new 0 0 75.54 75.54;" xml:space="preserve">
<style type="text/css">
	.st0{fill:#FFFFFF;}
	.st1{fill:none;stroke:#C6C6C6;}
	.st2{fill:#009FE3;}
	.st3{fill:none;stroke:#FAB200;stroke-width:4;stroke-linecap:round;stroke-linejoin:round;}
	.st4{fill:#FAB200;}
	.st5{fill:none;stroke:#98BC1F;stroke-width:4;stroke-linecap:round;stroke-linejoin:round;}
	.st6{fill:#9F2538;}
	.st7{fill:none;stroke:#FAB200;stroke-width:3;}
	.st8{fill:none;stroke:#9F2538;stroke-width:2;stroke-linecap:round;stroke-linejoin:round;}
	.st9{fill:none;stroke:#9F2538;stroke-width:4;stroke-linecap:round;stroke-linejoin:round;}
	.st10{fill:none;stroke:#3FA535;}
</style>
<polygon class="st0" points="0.14,0.46 0.14,76 75.68,76 75.68,0.46 0.14,0.46 "/>
<polygon class="st1" points="0.14,0.46 0.14,76 75.68,76 75.68,0.46 0.14,0.46 "/>
<path class="st2" d="M25,56.91c3.54-0.88,5.71-4.46,4.83-8c-0.88-3.54-4.46-5.71-8-4.83c-3.54,0.88-5.71,4.46-4.83,8
	c0,0.01,0,0.01,0,0.02C17.88,55.64,21.47,57.79,25,56.91C25,56.91,25,56.91,25,56.91z"/>
<path class="st2" d="M38.71,69.62c3.54-0.88,5.71-4.46,4.83-8c-0.88-3.54-4.46-5.71-8-4.83c-3.54,0.88-5.71,4.46-4.83,8
	c0,0.01,0,0.01,0,0.02C31.59,68.35,35.18,70.5,38.71,69.62C38.71,69.62,38.71,69.62,38.71,69.62z"/>
<line class="st3" x1="46.8" y1="42.96" x2="38.5" y2="48.81"/>
<path class="st4" d="M37.71,55.88c3.04-0.75,4.9-3.82,4.15-6.86s-3.82-4.9-6.86-4.15c-3.04,0.75-4.9,3.82-4.15,6.86
	c0,0.01,0,0.01,0,0.02C31.61,54.78,34.68,56.63,37.71,55.88z"/>
<path class="st4" d="M30.87,62.88c3.03-0.76,4.87-3.84,4.11-6.87c-0.76-3.03-3.84-4.87-6.87-4.11c-3.03,0.76-4.87,3.84-4.11,6.87
	c0,0,0,0,0,0.01c0.76,3.03,3.83,4.88,6.86,4.12c0,0,0.01,0,0.01,0V62.88z"/>
<path class="st4" d="M24.31,68.41c2.53-0.63,4.07-3.19,3.44-5.72c-0.63-2.53-3.19-4.07-5.72-3.44c-2.53,0.63-4.07,3.19-3.44,5.72
	c0,0,0,0,0,0C19.22,67.5,21.78,69.04,24.31,68.41z"/>
<line class="st5" x1="59.3" y1="37.47" x2="59.3" y2="67.82"/>
<path class="st4" d="M59.11,33.24c6.33,0,11.46-5.13,11.46-11.46c0-6.33-5.13-11.46-11.46-11.46c-6.33,0-11.46,5.13-11.46,11.46
	S52.78,33.24,59.11,33.24L59.11,33.24z"/>
<path class="st6" d="M11.58,19.06c0.87-1.58,2.41-2.66,4.19-2.94c-0.63-3.72,1.87-7.24,5.59-7.87s7.24,1.87,7.87,5.59
	c0.26,1.51,0,3.07-0.74,4.41c-1.24,2.29-4.31,4.34-4.8,5.24c-3.6,2.35-7,5-9.79,3.44c-2.82-1.52-3.87-5.04-2.35-7.86
	C11.57,19.07,11.57,19.06,11.58,19.06L11.58,19.06z"/>
<path class="st7" d="M11.58,19.06c0.87-1.58,2.41-2.66,4.19-2.94c-0.63-3.72,1.87-7.24,5.59-7.87s7.24,1.87,7.87,5.59
	c0.26,1.51,0,3.07-0.74,4.41c-1.24,2.29-4.31,4.34-4.8,5.24c-3.6,2.35-7,5-9.79,3.44c-2.82-1.52-3.87-5.04-2.35-7.86
	C11.57,19.07,11.57,19.06,11.58,19.06L11.58,19.06z"/>
<path class="st6" d="M16.65,27.93c1.46-2.69,11.31-7.7,16.61-5c3.44,1.57,4.95,5.64,3.38,9.08c-1.57,3.44-5.64,4.95-9.08,3.38
	c-0.29-0.13-0.57-0.29-0.84-0.46c-0.22-0.12-0.41-0.28-0.62-0.42c-2.12,2.4-5.78,2.64-8.19,0.52c-2.03-1.79-2.55-4.74-1.26-7.12
	V27.93z"/>
<path class="st7" d="M16.65,27.93c1.46-2.69,11.31-7.7,16.61-5c3.44,1.57,4.95,5.64,3.38,9.08c-1.57,3.44-5.64,4.95-9.08,3.38
	c-0.29-0.13-0.57-0.29-0.84-0.46c-0.22-0.12-0.41-0.28-0.62-0.42c-2.12,2.4-5.78,2.64-8.19,0.52c-2.03-1.79-2.55-4.74-1.26-7.12
	V27.93z"/>
<path class="st8" d="M32.88,16.88l6.85-7.33 M33.88,18.78l9.9-1.46"/>
<line class="st9" x1="12.36" y1="29.96" x2="32.63" y2="18.12"/>
<path class="st10" d="M39.5,9.96"/>
<path class="st10" d="M5.57,12.29"/>
</svg>
