<svg version="1.1" id="id_S8" xmlns="http://www.w3.org/2000/svg" xmlns:xlink="http://www.w3.org/1999/xlink" x="0px" y="0px"
	 viewBox="0 0 75.54 75.54" style="enable-background:new 0 0 75.54 75.54;" xml:space="preserve">
<style type="text/css">
	.st0{fill:#FFFFFF;}
	.st1{fill:none;stroke:#C6C6C6;}
	.st2{fill:none;stroke:#B15922;stroke-width:4;stroke-linecap:round;stroke-linejoin:round;}
	.st3{fill:none;stroke:#009FE3;stroke-width:4;stroke-linecap:round;stroke-linejoin:round;}
	.st4{fill:#B15922;}
	.st5{fill:#009FE3;}
	.st6{fill:#98BC1F;}
</style>
<polygon class="st0" points="0.14,0.46 0.14,76 75.68,76 75.68,0.46 0.14,0.46 "/>
<polygon class="st1" points="0.14,0.46 0.14,76 75.68,76 75.68,0.46 0.14,0.46 "/>
<line class="st2" x1="13.24" y1="53.26" x2="62.58" y2="53.26"/>
<line class="st3" x1="13.24" y1="23.2" x2="62.58" y2="23.2"/>
<path class="st4" d="M13.81,31.32c-1.69,1.8-2.58,4.21-2.47,6.68c-0.1,2.5,0.78,4.94,2.44,6.81c1.61,1.77,3.92,2.73,6.31,2.65
	c2.76,0,4.84-0.75,6.24-2.25c0.67-0.58,1.12-1.39,1.25-2.27c0.03-0.55-0.17-1.09-0.55-1.49c-0.38-0.38-0.9-0.58-1.44-0.56
	c-0.56,0.05-1.07,0.36-1.37,0.83c-0.41,0.55-0.85,1.07-1.32,1.57c-0.69,0.58-1.56,0.88-2.46,0.85c-1.34,0.04-2.62-0.54-3.47-1.57
	c-0.91-1.11-1.38-2.51-1.32-3.94c0-4.38,1.58-6.57,4.73-6.57c0.81-0.03,1.61,0.21,2.27,0.68l1.31,1.25c0.39,0.42,0.93,0.67,1.5,0.68
	c0.46,0.01,0.91-0.19,1.21-0.54c0.32-0.36,0.5-0.83,0.49-1.31c0-1.25-0.86-2.27-2.58-3.06c-1.32-0.64-2.77-0.98-4.24-1
	c-2.44-0.1-4.8,0.82-6.53,2.54V31.32z"/>
<path class="st5" d="M48.57,38.17c0.13-2.5-0.74-4.96-2.42-6.82c-3.65-3.38-9.29-3.38-12.94,0c-1.67,1.81-2.54,4.22-2.42,6.68
	c-0.12,2.51,0.75,4.97,2.42,6.85c1.65,1.76,3.98,2.71,6.39,2.61c2.43,0.09,4.78-0.85,6.47-2.59c1.7-1.8,2.6-4.21,2.5-6.68V38.17z
	 M44.35,38.17c0.08,1.53-0.36,3.03-1.25,4.28c-1.58,1.88-4.39,2.13-6.27,0.55c-0.2-0.17-0.38-0.35-0.55-0.55
	c-0.88-1.25-1.32-2.76-1.24-4.29c-0.04-1.44,0.34-2.86,1.1-4.09c0.73-1.27,2.1-2.03,3.56-2c1.47-0.04,2.84,0.73,3.57,2
	c0.76,1.23,1.13,2.66,1.08,4.11V38.17z"/>
<path class="st6" d="M58.5,38.92l-3.95,3.4c-1.42,1.2-2.13,2.16-2.13,2.87c0,1.31,0.71,2,2.13,2h8.11c0.48,0.02,0.95-0.13,1.32-0.43
	c0.33-0.3,0.52-0.73,0.5-1.18c0.01-0.44-0.2-0.86-0.55-1.13c-0.39-0.3-0.86-0.45-1.35-0.43h-5.17c1.1-0.89,2-1.67,2.79-2.33
	c1.1-0.9,2.07-1.95,2.87-3.12c0.74-1.2,1.13-2.59,1.13-4c0.06-1.42-0.5-2.8-1.54-3.77c-2.74-2.21-6.75-1.79-8.96,0.95
	c-0.01,0.02-0.03,0.03-0.04,0.05c-0.56,0.74-0.89,1.62-0.95,2.55c0,0.44,0.19,0.87,0.52,1.16c0.32,0.32,0.76,0.5,1.21,0.49
	c0.58,0,1.1-0.34,1.35-0.86l0.9-1.6c0.45-0.58,1.16-0.9,1.89-0.86c0.58-0.03,1.14,0.21,1.52,0.65c0.39,0.5,0.59,1.12,0.55,1.75
	c0,1.22-0.71,2.55-2.12,4L58.5,38.92z"/>
</svg>
