<svg version="1.1" id="id_S7" xmlns="http://www.w3.org/2000/svg" xmlns:xlink="http://www.w3.org/1999/xlink" x="0px" y="0px"
	 viewBox="0 0 75.54 75.54" style="enable-background:new 0 0 75.54 75.54;" xml:space="preserve">
<style type="text/css">
	.st0{fill:#FFFFFF;}
	.st1{fill:none;stroke:#C6C6C6;}
	.st2{fill:none;stroke:#B15922;stroke-width:4;stroke-linecap:round;stroke-linejoin:round;}
	.st3{fill:none;stroke:#009FE3;stroke-width:4;stroke-linecap:round;stroke-linejoin:round;}
	.st4{fill:#98BC1F;}
</style>
<polygon class="st0" points="0.14,0.47 0.14,76 75.68,76 75.68,0.47 0.14,0.47 "/>
<polygon class="st1" points="0.14,0.47 0.14,76 75.68,76 75.68,0.47 0.14,0.47 "/>
<path class="st2" d="M9.5,32.07h6.12 M10.27,39.44h2.3 M16.57,46.81h4.35 M11.37,54.07h0.74 M8.38,61.55h1 M13.65,61.55h32.69"/>
<path class="st3" d="M17.36,54.18h15.7 M26.5,46.81h41 M18.06,39.44h32.7"/>
<line class="st2" x1="38.91" y1="54.32" x2="59.69" y2="54.32"/>
<path class="st4" d="M32.58,35.06c6.26,0,11.34-5.08,11.34-11.34s-5.08-11.34-11.34-11.34c-6.26,0-11.34,5.08-11.34,11.34l0,0
	C21.24,29.98,26.32,35.06,32.58,35.06z"/>
<path class="st4" d="M56.98,34.52c4.7,0,8.51-3.17,8.51-7.09s-3.81-7.08-8.51-7.08s-8.5,3.17-8.5,7.08S52.29,34.52,56.98,34.52z"/>
</svg>
