<svg version="1.1" id="id_S10" xmlns="http://www.w3.org/2000/svg" xmlns:xlink="http://www.w3.org/1999/xlink" x="0px" y="0px"
	 viewBox="0 0 75.54 75.54" style="enable-background:new 0 0 75.54 75.54;" xml:space="preserve">
<style type="text/css">
	.st0{fill:#FFFFFF;}
	.st1{fill:none;stroke:#C6C6C6;}
	.st2{fill:none;stroke:#706F6F;stroke-width:4;stroke-linecap:round;stroke-linejoin:round;}
	.st3{fill:none;stroke:#9D9D9C;stroke-width:4;stroke-linecap:round;stroke-linejoin:round;}
	.st4{fill:#E3E3E3;}
	.st5{fill:#9D9D9C;}
	.st6{fill:#C6C6C6;}
</style>
<polygon class="st0" points="0.15,0.46 0.15,76 75.68,76 75.68,0.46 0.15,0.46 "/>
<polygon class="st1" points="0.15,0.46 0.15,76 75.68,76 75.68,0.46 0.15,0.46 "/>
<line class="st2" x1="43.66" y1="34" x2="43.66" y2="61.28"/>
<path class="st3" d="M11.2,46.56v14.72 M32.39,45.47v15.81"/>
<line class="st2" x1="8.36" y1="69.05" x2="64.66" y2="69.05"/>
<path class="st4" d="M31.87,40.78c3.31,0,6-2.69,6-6s-2.69-6-6-6s-6,2.69-6,6S28.56,40.78,31.87,40.78z"/>
<path class="st5" d="M21.75,26.46c3.31,0,6-2.69,6-6s-2.69-6-6-6s-6,2.69-6,6S18.44,26.46,21.75,26.46z"/>
<path class="st4" d="M11.2,42.41c3.31,0,6-2.69,6-6s-2.69-6-6-6s-6,2.69-6,6S7.89,42.41,11.2,42.41z"/>
<path class="st6" d="M53.54,62.07c3.31,0,6-2.69,6-6s-2.69-6-6-6s-6,2.69-6,6S50.23,62.07,53.54,62.07z"/>
<path class="st5" d="M44.18,29.17c6.56,0.01,11.88-5.31,11.89-11.87c0.01-6.56-5.31-11.88-11.87-11.89
	c-6.56-0.01-11.88,5.31-11.89,11.87c0,0,0,0.01,0,0.01C32.31,23.85,37.62,29.17,44.18,29.17z"/>
<line class="st3" x1="64.18" y1="40.23" x2="64.18" y2="61.28"/>
<line class="st2" x1="21.79" y1="30.81" x2="21.79" y2="61.28"/>
<path class="st4" d="M63.64,35.33c3.87,0,7-3.13,7-7s-3.13-7-7-7c-3.87,0-7,3.13-7,7S59.77,35.33,63.64,35.33z"/>
<path class="st4" d="M63.64,24.84c3.13,0,5.67-2.54,5.67-5.67c0-3.13-2.54-5.67-5.67-5.67c-3.13,0-5.67,2.54-5.67,5.67l0,0
	C57.97,22.3,60.51,24.84,63.64,24.84z"/>
<path class="st4" d="M63.64,15.12c2.35,0.01,4.26-1.9,4.27-4.25c0.01-2.35-1.9-4.26-4.25-4.27c-2.35-0.01-4.26,1.9-4.27,4.25
	c0,0.01,0,0.01,0,0.02C59.39,13.22,61.29,15.12,63.64,15.12L63.64,15.12z"/>
</svg>
