<svg version="1.1" id="id_K11" xmlns="http://www.w3.org/2000/svg" xmlns:xlink="http://www.w3.org/1999/xlink" x="0px" y="0px"
	 viewBox="0 0 75.54 75.54" style="enable-background:new 0 0 75.54 75.54;" xml:space="preserve">
<style type="text/css">
	.st0{fill:#FFFFFF;}
	.st1{fill:none;stroke:#C6C6C6;}
	.st2{fill:none;stroke:#9D9D9C;stroke-width:4;stroke-linecap:round;stroke-linejoin:round;}
	.st3{fill:none;stroke:#706F6F;stroke-width:4;stroke-linecap:round;stroke-linejoin:round;}
	.st4{fill:none;stroke:#C6C6C6;stroke-width:4;stroke-linecap:round;stroke-linejoin:round;}
	.st5{fill:#E3E3E3;}
	.st6{fill:#9D9D9C;}
	.st7{fill:#706F6F;}
	.st8{fill:none;stroke:#FFFFFF;stroke-width:4;stroke-linecap:round;stroke-linejoin:round;}
	.st9{fill:#3C3C3B;}
</style>
<polygon class="st0" points="0.15,0.46 0.15,76 75.68,76 75.68,0.46 0.15,0.46 "/>
<polygon class="st1" points="0.15,0.46 0.15,76 75.68,76 75.68,0.46 0.15,0.46 "/>
<path class="st2" d="M21.76,35.67v24.36 M10.96,53.63v6.4"/>
<line class="st3" x1="10.82" y1="67.79" x2="38.19" y2="67.79"/>
<line class="st4" x1="45.7" y1="67.79" x2="70.05" y2="67.79"/>
<path class="st5" d="M10.98,45.46c3.31,0,6-2.69,6-6s-2.69-6-6-6s-6,2.69-6,6S7.67,45.46,10.98,45.46z"/>
<path class="st6" d="M22.54,31.09c5.96,0.01,10.8-4.83,10.81-10.79c0.01-5.96-4.83-10.8-10.79-10.81
	c-5.96-0.01-10.8,4.83-10.81,10.79c0,0,0,0.01,0,0.01c-0.01,5.96,4.82,10.79,10.78,10.8C22.53,31.09,22.54,31.09,22.54,31.09z"/>
<path class="st7" d="M49.24,61.83c10.24,0.01,18.55-8.3,18.56-18.54c0.01-10.24-8.3-18.55-18.54-18.56
	c-10.24-0.01-18.55,8.3-18.56,18.54c0,0,0,0.01,0,0.01c-0.01,10.24,8.29,18.54,18.53,18.55C49.23,61.83,49.24,61.83,49.24,61.83z"/>
<path class="st8" d="M39.98,47.09c2,3.26,5.53,5.28,9.35,5.36c3.86-0.06,7.43-2.08,9.47-5.36"/>
<path class="st0" d="M41.93,41.07c1.57,0.01,2.84-1.26,2.85-2.83c0.01-1.57-1.26-2.84-2.83-2.85s-2.84,1.26-2.85,2.83
	c0,0,0,0.01,0,0.01C39.1,39.8,40.36,41.07,41.93,41.07z"/>
<path class="st0" d="M56.55,41.07c1.57,0.01,2.84-1.26,2.85-2.83c0.01-1.57-1.26-2.84-2.83-2.85s-2.84,1.26-2.85,2.83
	c0,0,0,0.01,0,0.01C53.72,39.8,54.98,41.07,56.55,41.07z"/>
<path class="st9" d="M67.08,5.24c-2.14-0.16-4.2,0.84-5.4,2.61c-0.36-0.6-1.83-2.61-5.4-2.61c-4.19,0-6.12,5.8-3.63,9.29
	s9,10.31,9,10.31s6.54-6.83,9-10.31s0.57-9.29-3.63-9.29H67.08z"/>
</svg>
