<svg version="1.1" id="id_S13" xmlns="http://www.w3.org/2000/svg" xmlns:xlink="http://www.w3.org/1999/xlink" x="0px" y="0px"
	 viewBox="0 0 75.54 75.54" style="enable-background:new 0 0 75.54 75.54;" xml:space="preserve">
<style type="text/css">
	.st0{fill:#FFFFFF;}
	.st1{fill:none;stroke:#C6C6C6;}
	.st2{fill:none;stroke:#706F6F;stroke-width:4;stroke-linecap:round;stroke-linejoin:round;}
	.st3{fill:none;stroke:#C6C6C6;stroke-width:4;stroke-linecap:round;stroke-linejoin:round;}
	.st4{fill:#9D9D9C;}
</style>
<polygon class="st0" points="0.15,0.46 0.15,76 75.68,76 75.68,0.46 0.15,0.46 "/>
<polygon class="st1" points="0.15,0.46 0.15,76 75.68,76 75.68,0.46 0.15,0.46 "/>
<line class="st2" x1="22.09" y1="60.18" x2="70.7" y2="60.18"/>
<line class="st3" x1="5.93" y1="60.18" x2="27.26" y2="60.18"/>
<path class="st4" d="M9.64,54.42c3,0,5.35-2.68,5.35-6s-2.39-6-5.35-6s-5.34,2.68-5.34,6S6.69,54.42,9.64,54.42z"/>
<path class="st4" d="M45.14,54.42c4.38,0,7.92-4,7.92-8.88s-3.54-8.87-7.92-8.87s-7.93,4-7.93,8.87S40.76,54.42,45.14,54.42z"/>
<path class="st4" d="M30.79,54.42c5.32,0,9.64-4.84,9.64-10.8s-4.32-10.8-9.64-10.8s-9.65,4.83-9.65,10.8S25.46,54.42,30.79,54.42z"
	/>
<path class="st4" d="M21.23,54.42c5.52,0,10-5,10-11.2s-4.47-11.19-10-11.19s-10,5-10,11.19S15.71,54.42,21.23,54.42z"/>
<path class="st4" d="M29.26,36.67c5.52,0,10-5,10-11.2s-4.47-11.19-10-11.19s-10,5-10,11.19S23.74,36.67,29.26,36.67z"/>
<path class="st4" d="M60.13,54.42c6.8,0,12.31-6.18,12.31-13.79s-5.51-13.79-12.31-13.79s-12.32,6.17-12.32,13.79
	S53.32,54.42,60.13,54.42z"/>
<path class="st4" d="M43.38,47.7c6.8,0,12.31-6.17,12.31-13.79s-5.51-13.79-12.31-13.79s-12.32,6.17-12.32,13.79
	S36.58,47.7,43.38,47.7z"/>
</svg>
