<svg version="1.1" id="id_V1" xmlns="http://www.w3.org/2000/svg" xmlns:xlink="http://www.w3.org/1999/xlink" x="0px" y="0px"
	 viewBox="0 0 75.54 75.54" style="enable-background:new 0 0 75.54 75.54;" xml:space="preserve">
<style type="text/css">
	.st0{fill:#FFFFFF;}
	.st1{fill:none;stroke:#C6C6C6;}
	.st2{fill:none;stroke:#9D9D9C;stroke-width:4;stroke-linecap:round;stroke-linejoin:round;}
	.st3{fill:none;stroke:#706F6F;stroke-width:4;stroke-linecap:round;stroke-linejoin:round;}
	.st4{fill:#E3E3E3;}
</style>
<polygon class="st0" points="0.15,0.46 0.15,76 75.68,76 75.68,0.46 0.15,0.46 "/>
<polygon class="st1" points="0.15,0.46 0.15,76 75.68,76 75.68,0.46 0.15,0.46 "/>
<path class="st2" d="M52.06,33v24.35 M41.26,38.72v18.63 M30.46,44.81v12.54 M19.64,38.72v18.63"/>
<path class="st3" d="M10.77,63.99h46.8 M31.09,70.99h34"/>
<path class="st4" d="M19.83,34.53c3.84,0,7-2.77,7-6.19s-3.12-6.19-7-6.19s-7,2.77-7,6.19S15.95,34.53,19.83,34.53z"/>
<path class="st4" d="M19.83,25.21c3.13,0,5.67-2.25,5.67-5s-2.54-5-5.67-5s-5.67,2.25-5.67,5S16.7,25.21,19.83,25.21z"/>
<path class="st4" d="M19.83,16.57c2.08-0.25,3.57-2.15,3.31-4.23c-0.25-2.08-2.15-3.57-4.23-3.31c-1.91,0.23-3.34,1.85-3.34,3.77
	c0.12,2.21,2.01,3.89,4.22,3.77C19.8,16.57,19.81,16.57,19.83,16.57z"/>
<path class="st4" d="M30.46,40.4c3.85,0,7-2.77,7-6.19s-3.12-6.19-7-6.19s-7,2.77-7,6.19S26.58,40.4,30.46,40.4z"/>
<path class="st4" d="M30.46,31.07c3.13,0,5.67-2.25,5.67-5s-2.54-5-5.67-5s-5.67,2.25-5.67,5S27.33,31.07,30.46,31.07z"/>
<path class="st4" d="M30.46,22.44c2.08-0.25,3.57-2.14,3.32-4.22c-0.25-2.08-2.14-3.57-4.22-3.32c-1.91,0.23-3.35,1.85-3.35,3.78
	c0.12,2.21,2.01,3.89,4.22,3.77C30.44,22.44,30.45,22.44,30.46,22.44z"/>
<path class="st4" d="M41.14,34.39c3.84,0,7-2.77,7-6.19s-3.12-6.19-7-6.19s-7,2.77-7,6.19S37.26,34.39,41.14,34.39z"/>
<path class="st4" d="M41.14,25.07c3.13,0,5.67-2.26,5.67-5s-2.54-5-5.67-5s-5.67,2.25-5.67,5S38.01,25.07,41.14,25.07z"/>
<path class="st4" d="M41.14,16.43c2.08-0.25,3.57-2.14,3.32-4.22c-0.25-2.08-2.14-3.57-4.22-3.32c-1.91,0.23-3.35,1.84-3.35,3.77
	c0.12,2.21,2,3.9,4.21,3.78C41.11,16.43,41.12,16.43,41.14,16.43z"/>
<path class="st4" d="M52.06,28.98c3.85,0,7-2.77,7-6.19s-3.12-6.19-7-6.19s-7,2.77-7,6.19S48.18,28.98,52.06,28.98z"/>
<path class="st4" d="M52.06,19.66c3.13,0,5.67-2.25,5.67-5s-2.54-5-5.67-5s-5.67,2.25-5.67,5S48.93,19.66,52.06,19.66z"/>
<path class="st4" d="M52.06,11.07c2.08-0.25,3.57-2.14,3.32-4.22c-0.25-2.08-2.14-3.57-4.22-3.32c-1.91,0.23-3.35,1.85-3.35,3.78
	c0.12,2.21,2.01,3.89,4.22,3.77C52.04,11.07,52.05,11.07,52.06,11.07z"/>
</svg>
