<svg version="1.1" id="id_S12" xmlns="http://www.w3.org/2000/svg" xmlns:xlink="http://www.w3.org/1999/xlink" x="0px" y="0px"
	 viewBox="0 0 75.54 75.54" style="enable-background:new 0 0 75.54 75.54;" xml:space="preserve">
<style type="text/css">
	.st0{fill:#FFFFFF;}
	.st1{fill:none;stroke:#C6C6C6;}
	.st2{fill:none;stroke:#9D9D9C;stroke-width:4;stroke-linecap:round;stroke-linejoin:round;}
	.st3{fill:none;stroke:#706F6F;stroke-width:4;stroke-linecap:round;stroke-linejoin:round;}
	.st4{fill:none;stroke:#C6C6C6;stroke-width:4;stroke-linecap:round;stroke-linejoin:round;}
	.st5{fill:#706F6F;}
	.st6{fill:#9D9D9C;}
	.st7{fill:#B2B2B2;}
	.st8{fill:#E3E3E3;}
</style>
<polygon class="st0" points="0.15,0.47 0.15,76 75.68,76 75.68,0.47 0.15,0.47 "/>
<polygon class="st1" points="0.15,0.47 0.15,76 75.68,76 75.68,0.47 0.15,0.47 "/>
<path class="st2" d="M40.03,34.26v24.36 M31.36,36.26v22.36 M21.27,42.81v15.81"/>
<line class="st3" x1="6.57" y1="66.38" x2="48.38" y2="66.38"/>
<line class="st4" x1="57.2" y1="66.38" x2="70.7" y2="66.38"/>
<path class="st5" d="M9.12,59.4c3.31,0,6-2.69,6-6s-2.69-6-6-6s-6,2.69-6,6S5.81,59.4,9.12,59.4z"/>
<path class="st6" d="M40.81,29.7c5.96,0,10.8-4.84,10.8-10.8S46.77,8.1,40.81,8.1c-5.96,0-10.8,4.84-10.8,10.8v0
	C30.01,24.86,34.84,29.7,40.81,29.7z"/>
<path class="st7" d="M48.82,38.95c-1.56,0-2.83,1.27-2.83,2.83v3.65c-0.01,1.56,1.26,2.83,2.82,2.84c0,0,0.01,0,0.01,0h10.57
	c1.57,0,2.84-1.27,2.84-2.84v-3.65c-0.01-1.56-1.28-2.83-2.84-2.83H48.82z"/>
<path class="st7" d="M66.98,38.95c-1.56,0-2.83,1.27-2.83,2.83l0,0v3.65c0,1.56,1.27,2.83,2.83,2.84h2.88
	c1.57,0,2.84-1.27,2.84-2.84v0v-3.65c-0.01-1.56-1.28-2.83-2.84-2.83H66.98z"/>
<path class="st7" d="M69.86,50.58c1.56,0,2.83,1.27,2.84,2.83v3.65c0,1.57-1.27,2.84-2.84,2.84l0,0H59.29
	c-1.56-0.01-2.83-1.28-2.83-2.84v-3.65c0-1.56,1.27-2.83,2.83-2.83H69.86z"/>
<path class="st7" d="M51.7,50.58c1.56,0,2.83,1.27,2.83,2.83v3.65c0,1.56-1.27,2.83-2.83,2.84h-2.88c-1.56,0-2.83-1.27-2.83-2.83
	c0,0,0-0.01,0-0.01v-3.65c0-1.56,1.27-2.83,2.83-2.83H51.7z"/>
<path class="st8" d="M21.06,38.24c3.87,0,7-3.13,7-7s-3.13-7-7-7s-7,3.13-7,7l0,0C14.06,35.1,17.19,38.24,21.06,38.24z"/>
<path class="st8" d="M21.06,27.75c3.13,0,5.67-2.54,5.67-5.67s-2.54-5.67-5.67-5.67c-3.13,0-5.67,2.54-5.67,5.67
	C15.39,25.21,17.93,27.75,21.06,27.75L21.06,27.75z"/>
<path class="st8" d="M21.06,18.03c2.35,0.01,4.26-1.9,4.27-4.25c0.01-2.35-1.9-4.26-4.25-4.27c-2.35-0.01-4.26,1.9-4.27,4.25
	c0,0.01,0,0.01,0,0.02C16.81,16.12,18.71,18.03,21.06,18.03L21.06,18.03z"/>
</svg>
