<svg version="1.1" id="id_S15" xmlns="http://www.w3.org/2000/svg" xmlns:xlink="http://www.w3.org/1999/xlink" x="0px" y="0px"
	 viewBox="0 0 75.54 75.54" style="enable-background:new 0 0 75.54 75.54;" xml:space="preserve">
<style type="text/css">
	.st0{fill:#FFFFFF;}
	.st1{fill:none;stroke:#C6C6C6;}
	.st2{fill:#3C3C3B;}
	.st3{fill:none;stroke:#E3E3E3;stroke-width:3;}
	.st4{fill:none;stroke:#3C3C3B;stroke-width:2;stroke-linecap:round;stroke-linejoin:round;}
	.st5{fill:none;stroke:#3C3C3B;stroke-width:4;stroke-linecap:round;stroke-linejoin:round;}
	.st6{fill:none;stroke:#3FA535;}
	.st7{fill:none;stroke:#9D9D9C;stroke-width:4;stroke-linecap:round;stroke-linejoin:round;}
	.st8{fill:#E3E3E3;}
	.st9{fill:#C6C6C6;}
	.st10{fill:none;stroke:#E3E3E3;stroke-width:4;stroke-linecap:round;stroke-linejoin:round;}
</style>
<polygon class="st0" points="0.15,0.46 0.15,76 75.68,76 75.68,0.46 0.15,0.46 "/>
<polygon class="st1" points="0.15,0.46 0.15,76 75.68,76 75.68,0.46 0.15,0.46 "/>
<path class="st2" d="M67.97,30.14c-0.86-1.58-2.41-2.67-4.19-2.94c0.64-3.72-1.86-7.26-5.58-7.9s-7.26,1.86-7.9,5.58
	c-0.26,1.52,0,3.09,0.74,4.44c1.25,2.29,4.32,4.34,4.8,5.23c3.6,2.36,7,5,9.8,3.45C68.45,36.48,69.5,32.96,67.97,30.14
	C67.97,30.15,67.97,30.14,67.97,30.14z"/>
<path class="st3" d="M67.97,30.14c-0.86-1.58-2.41-2.67-4.19-2.94c0.64-3.72-1.86-7.26-5.58-7.9s-7.26,1.86-7.9,5.58
	c-0.26,1.52,0,3.09,0.74,4.44c1.25,2.29,4.32,4.34,4.8,5.23c3.6,2.36,7,5,9.8,3.45C68.45,36.48,69.5,32.96,67.97,30.14
	C67.97,30.15,67.97,30.14,67.97,30.14z"/>
<path class="st2" d="M62.9,39c-1.46-2.69-11.31-7.7-16.6-5c-3.22,1.97-4.23,6.19-2.25,9.41c1.83,2.99,5.62,4.11,8.78,2.59
	c0.22-0.12,0.41-0.28,0.62-0.42c2.11,2.41,5.77,2.66,8.18,0.55c2.05-1.79,2.58-4.77,1.27-7.16V39z"/>
<path class="st3" d="M62.9,39c-1.46-2.69-11.31-7.7-16.6-5c-3.22,1.97-4.23,6.19-2.25,9.41c1.83,2.99,5.62,4.11,8.78,2.59
	c0.22-0.12,0.41-0.28,0.62-0.42c2.11,2.41,5.77,2.66,8.18,0.55c2.05-1.79,2.58-4.77,1.27-7.16V39z"/>
<path class="st4" d="M46.64,27.96l-6.84-7.33 M45.64,29.88l-9.89-1.47"/>
<line class="st5" x1="67.19" y1="41.03" x2="46.93" y2="29.2"/>
<path class="st6" d="M40.07,21.07"/>
<path class="st6" d="M73.98,23.36"/>
<path class="st7" d="M51.52,54.21v15.6 M40.72,50.99v19.22 M29.92,54v15.81"/>
<path class="st8" d="M29.73,49.31c3.31,0,6-2.69,6-6s-2.69-6-6-6s-6,2.69-6,6S26.42,49.31,29.73,49.31z"/>
<path class="st9" d="M15.39,17.46c3.65,0,6.61-2.96,6.61-6.61c0-3.65-2.96-6.61-6.61-6.61c-3.65,0-6.61,2.96-6.61,6.61
	c0,0,0,0.01,0,0.01C8.78,14.51,11.74,17.46,15.39,17.46z"/>
<path class="st9" d="M25.64,33.12c3.65,0,6.61-2.96,6.61-6.61s-2.96-6.61-6.61-6.61c-3.65,0-6.61,2.96-6.61,6.61v0
	C19.03,30.16,21.99,33.12,25.64,33.12z"/>
<line class="st10" x1="39.92" y1="9.2" x2="30.45" y2="12.87"/>
<path class="st8" d="M27.98,19.54c3.13,0.01,5.67-2.53,5.68-5.66c0.01-3.13-2.53-5.67-5.66-5.68s-5.67,2.53-5.68,5.66
	c0,0,0,0.01,0,0.01c-0.01,3.13,2.52,5.66,5.65,5.67C27.97,19.54,27.98,19.54,27.98,19.54z"/>
<path class="st8" d="M19.64,24.68c3.13,0,5.67-2.54,5.67-5.67c0-3.13-2.54-5.67-5.67-5.67c-3.13,0-5.67,2.54-5.67,5.67
	c0,0,0,0.01,0,0.01c0,3.13,2.53,5.66,5.66,5.66C19.63,24.68,19.64,24.68,19.64,24.68z"/>
<path class="st8" d="M11.94,28.45c2.61,0,4.72-2.11,4.72-4.72c0-2.61-2.11-4.72-4.72-4.72c-2.61,0-4.72,2.11-4.72,4.72
	c0,0,0,0.01,0,0.01c0,2.6,2.11,4.71,4.71,4.71C11.93,28.45,11.94,28.45,11.94,28.45z"/>
</svg>
