<svg version="1.1" id="id_S5" xmlns="http://www.w3.org/2000/svg" xmlns:xlink="http://www.w3.org/1999/xlink" x="0px" y="0px"
	 viewBox="0 0 75.54 75.54" style="enable-background:new 0 0 75.54 75.54;" xml:space="preserve">
<style type="text/css">
	.st0{fill:#FFFFFF;}
	.st1{fill:none;stroke:#C6C6C6;}
	.st2{fill:#C6C6C6;}
	.st3{fill:none;stroke:#E3E3E3;stroke-width:4;stroke-linecap:round;stroke-linejoin:round;}
	.st4{fill:#E3E3E3;}
	.st5{fill:none;stroke:#9D9D9C;stroke-width:4;stroke-linecap:round;stroke-linejoin:round;}
	.st6{fill:#3C3C3B;}
	.st7{fill:none;stroke:#E3E3E3;stroke-width:3;}
	.st8{fill:none;stroke:#3C3C3B;stroke-width:2;stroke-linecap:round;stroke-linejoin:round;}
	.st9{fill:none;stroke:#3C3C3B;stroke-width:4;stroke-linecap:round;stroke-linejoin:round;}
	.st10{fill:none;stroke:#3FA535;}
</style>
<polygon class="st0" points="0.15,0.46 0.15,76 75.68,76 75.68,0.46 0.15,0.46 "/>
<polygon class="st1" points="0.15,0.46 0.15,76 75.68,76 75.68,0.46 0.15,0.46 "/>
<path class="st2" d="M25.01,56.91c3.54-0.88,5.71-4.46,4.83-8c-0.88-3.54-4.46-5.71-8-4.83c-3.54,0.88-5.71,4.46-4.83,8
	c0,0.01,0,0.01,0,0.02C17.89,55.64,21.47,57.79,25.01,56.91z"/>
<path class="st2" d="M38.72,69.62c3.54-0.88,5.71-4.46,4.83-8c-0.88-3.54-4.46-5.71-8-4.83c-3.54,0.88-5.71,4.46-4.83,8
	c0,0.01,0,0.01,0,0.02C31.6,68.35,35.18,70.5,38.72,69.62C38.72,69.62,38.72,69.62,38.72,69.62z"/>
<line class="st3" x1="46.81" y1="42.96" x2="38.51" y2="48.81"/>
<path class="st4" d="M37.72,55.88c3.04-0.75,4.9-3.82,4.15-6.86s-3.82-4.9-6.86-4.15c-3.04,0.75-4.9,3.82-4.15,6.86
	c0,0.01,0,0.01,0,0.02C31.62,54.78,34.69,56.62,37.72,55.88z"/>
<path class="st4" d="M30.87,62.88c3.03-0.76,4.88-3.83,4.12-6.86c-0.76-3.03-3.83-4.88-6.86-4.12c-3.03,0.76-4.88,3.83-4.12,6.86
	c0,0,0,0,0,0C24.77,61.79,27.84,63.64,30.87,62.88z"/>
<path class="st4" d="M24.32,68.41c2.53-0.63,4.07-3.19,3.44-5.72c-0.63-2.53-3.19-4.07-5.72-3.44c-2.53,0.63-4.07,3.19-3.44,5.72
	c0,0,0,0,0,0C19.23,67.5,21.79,69.04,24.32,68.41z"/>
<line class="st5" x1="59.31" y1="37.47" x2="59.31" y2="67.82"/>
<path class="st4" d="M59.12,33.24c6.33-0.01,11.45-5.15,11.44-11.48s-5.15-11.45-11.48-11.44c-6.32,0.01-11.44,5.14-11.44,11.46
	c0,6.33,5.13,11.46,11.46,11.46l0,0H59.12z"/>
<path class="st6" d="M11.64,19.06c0.86-1.58,2.41-2.67,4.19-2.94c-0.27-1.5-0.02-3.06,0.71-4.4c1.97-3.22,6.19-4.23,9.41-2.25
	c2.99,1.83,4.11,5.62,2.59,8.78c-1.25,2.29-4.32,4.34-4.8,5.24c-3.6,2.35-7,5-9.8,3.44c-2.81-1.53-3.86-5.05-2.33-7.87H11.64z"/>
<path class="st7" d="M11.64,19.06c0.86-1.58,2.41-2.67,4.19-2.94c-0.27-1.5-0.02-3.06,0.71-4.4c1.97-3.22,6.19-4.23,9.41-2.25
	c2.99,1.83,4.11,5.62,2.59,8.78c-1.25,2.29-4.32,4.34-4.8,5.24c-3.6,2.35-7,5-9.8,3.44c-2.81-1.53-3.86-5.05-2.33-7.87H11.64z"/>
<path class="st6" d="M16.64,27.93c1.46-2.69,11.31-7.7,16.6-5c3.41,1.63,4.85,5.72,3.22,9.12s-5.72,4.85-9.12,3.22
	c-0.21-0.1-0.42-0.22-0.62-0.34c-0.22-0.12-0.41-0.28-0.62-0.42c-2.12,2.4-5.78,2.64-8.19,0.52c-2.03-1.79-2.55-4.74-1.26-7.12
	V27.93z"/>
<path class="st7" d="M16.64,27.93c1.46-2.69,11.31-7.7,16.6-5c3.41,1.63,4.85,5.72,3.22,9.12s-5.72,4.85-9.12,3.22
	c-0.21-0.1-0.42-0.22-0.62-0.34c-0.22-0.12-0.41-0.28-0.62-0.42c-2.12,2.4-5.78,2.64-8.19,0.52c-2.03-1.79-2.55-4.74-1.26-7.12
	V27.93z"/>
<path class="st8" d="M32.89,16.88l6.84-7.33 M33.89,18.78l9.89-1.46"/>
<line class="st9" x1="12.37" y1="29.96" x2="32.63" y2="18.12"/>
<path class="st10" d="M39.49,9.96"/>
<path class="st10" d="M5.58,12.29"/>
</svg>
