<svg version="1.1" id="id_S8" xmlns="http://www.w3.org/2000/svg" xmlns:xlink="http://www.w3.org/1999/xlink" x="0px" y="0px"
	 viewBox="0 0 75.54 75.54" style="enable-background:new 0 0 75.54 75.54;" xml:space="preserve">
<style type="text/css">
	.st0{fill:#FFFFFF;}
	.st1{fill:none;stroke:#C6C6C6;}
	.st2{fill:none;stroke:#706F6F;stroke-width:4;stroke-linecap:round;stroke-linejoin:round;}
	.st3{fill:none;stroke:#C6C6C6;stroke-width:4;stroke-linecap:round;stroke-linejoin:round;}
	.st4{fill:#706F6F;}
	.st5{fill:#C6C6C6;}
	.st6{fill:#9D9D9C;}
</style>
<polygon class="st0" points="0.15,0.46 0.15,76 75.68,76 75.68,0.46 0.15,0.46 "/>
<polygon class="st1" points="0.15,0.46 0.15,76 75.68,76 75.68,0.46 0.15,0.46 "/>
<line class="st2" x1="13.25" y1="53.26" x2="62.58" y2="53.26"/>
<line class="st3" x1="13.25" y1="23.2" x2="62.58" y2="23.2"/>
<path class="st4" d="M13.82,31.32c-1.69,1.8-2.58,4.21-2.47,6.68c-0.1,2.5,0.77,4.94,2.43,6.81c1.62,1.76,3.93,2.73,6.32,2.65
	c2.76,0,4.84-0.75,6.24-2.25c0.67-0.58,1.12-1.39,1.25-2.27c0.03-0.55-0.17-1.09-0.55-1.49c-0.39-0.37-0.9-0.57-1.44-0.56
	c-0.56,0.05-1.07,0.36-1.37,0.83c-0.41,0.55-0.85,1.07-1.32,1.57c-0.69,0.57-1.56,0.88-2.46,0.85c-1.34,0.04-2.62-0.54-3.48-1.57
	c-0.9-1.11-1.37-2.51-1.31-3.94c0-4.38,1.58-6.57,4.73-6.57c0.81-0.03,1.61,0.21,2.27,0.68l1.3,1.25c0.39,0.42,0.93,0.67,1.5,0.68
	c0.47,0.01,0.91-0.19,1.22-0.54c0.32-0.36,0.49-0.83,0.48-1.31c0-1.25-0.86-2.27-2.57-3.06c-1.32-0.64-2.77-0.98-4.24-1
	c-2.44-0.1-4.8,0.82-6.53,2.54V31.32z"/>
<path class="st5" d="M48.58,38.17c0.13-2.5-0.74-4.96-2.42-6.82c-3.66-3.38-9.29-3.38-12.95,0c-1.66,1.82-2.53,4.22-2.41,6.68
	c-0.12,2.51,0.74,4.97,2.41,6.85c1.65,1.76,3.98,2.71,6.39,2.61c2.43,0.09,4.78-0.85,6.48-2.59c1.7-1.8,2.6-4.21,2.5-6.68V38.17z
	 M44.36,38.17c0.08,1.53-0.37,3.04-1.26,4.28c-1.57,1.88-4.37,2.13-6.25,0.56c-0.2-0.17-0.39-0.35-0.56-0.56
	c-0.89-1.25-1.32-2.76-1.24-4.29c-0.04-1.44,0.34-2.86,1.1-4.09c1.25-1.97,3.85-2.55,5.82-1.31c0.53,0.33,0.97,0.78,1.31,1.31
	c0.76,1.23,1.13,2.66,1.08,4.11V38.17z"/>
<path class="st6" d="M58.49,38.92l-3.93,3.4c-1.42,1.2-2.13,2.16-2.13,2.87c0,1.31,0.71,2,2.13,2h8.08
	c0.48,0.02,0.95-0.13,1.32-0.43c0.33-0.3,0.52-0.73,0.5-1.18c0-0.44-0.2-0.86-0.55-1.13c-0.39-0.3-0.87-0.45-1.36-0.43h-5.16
	c1.1-0.89,2-1.67,2.79-2.33c1.1-0.9,2.06-1.95,2.86-3.12c0.75-1.2,1.14-2.59,1.14-4c0.06-1.42-0.5-2.8-1.54-3.77
	c-2.74-2.21-6.75-1.79-8.96,0.95c-0.01,0.02-0.03,0.03-0.04,0.05c-0.56,0.74-0.89,1.62-0.95,2.55c0,0.44,0.18,0.86,0.51,1.16
	c0.33,0.32,0.76,0.5,1.22,0.49c0.58-0.01,1.1-0.34,1.35-0.86l0.9-1.6c0.45-0.58,1.16-0.9,1.89-0.86c0.58-0.03,1.14,0.21,1.52,0.65
	c0.39,0.5,0.59,1.12,0.55,1.75c0,1.22-0.71,2.55-2.13,4L58.49,38.92z"/>
</svg>
