<svg version="1.1" id="id_S6" xmlns="http://www.w3.org/2000/svg" xmlns:xlink="http://www.w3.org/1999/xlink" x="0px" y="0px"
	 viewBox="0 0 75.54 75.54" style="enable-background:new 0 0 75.54 75.54;" xml:space="preserve">
<style type="text/css">
	.st0{fill:#FFFFFF;}
	.st1{fill:none;stroke:#C6C6C6;}
	.st2{fill:none;stroke:#9D9D9C;stroke-width:4;stroke-linecap:round;stroke-linejoin:round;}
	.st3{fill:none;stroke:#706F6F;stroke-width:4;stroke-linecap:round;stroke-linejoin:round;}
	.st4{fill:none;stroke:#C6C6C6;stroke-width:4;stroke-linecap:round;stroke-linejoin:round;}
	.st5{fill:#E3E3E3;}
	.st6{fill:#9D9D9C;}
</style>
<polygon class="st0" points="0.15,0.46 0.15,76 75.68,76 75.68,0.46 0.15,0.46 "/>
<polygon class="st1" points="0.15,0.46 0.15,76 75.68,76 75.68,0.46 0.15,0.46 "/>
<path class="st2" d="M48.23,32.07v13.55 M37.43,32.07v13.55 M26.63,35.62v10"/>
<line class="st3" x1="6.94" y1="53.36" x2="53.74" y2="53.36"/>
<path class="st4" d="M62.56,53.36h6.33 M12.83,61.77h6.33"/>
<path class="st3" d="M27.26,61.77h34 M19.66,70.18h34"/>
<path class="st5" d="M14.48,46.38c3.31,0,6-2.69,6-6s-2.69-6-6-6s-6,2.69-6,6S11.17,46.38,14.48,46.38z"/>
<path class="st6" d="M48.3,25.87c5.96,0,10.8-4.84,10.8-10.8c0-5.96-4.84-10.8-10.8-10.8c-5.96,0-10.8,4.84-10.8,10.8
	S42.33,25.87,48.3,25.87L48.3,25.87z"/>
<path class="st5" d="M25.71,30.07c3.85,0,7-2.77,7-6.19s-3.12-6.19-7-6.19s-7,2.77-7,6.19S21.83,30.07,25.71,30.07z"/>
<path class="st5" d="M25.71,20.73c3.13,0,5.67-2.26,5.67-5s-2.54-5-5.67-5s-5.67,2.26-5.67,5S22.58,20.73,25.71,20.73z"/>
<path class="st5" d="M25.71,12.07c2.09-0.24,3.59-2.13,3.34-4.22s-2.13-3.59-4.22-3.34c-1.92,0.22-3.37,1.85-3.37,3.79
	c0.12,2.21,2,3.9,4.21,3.78C25.68,12.07,25.69,12.07,25.71,12.07z"/>
</svg>
