<svg version="1.1" id="id_S7" xmlns="http://www.w3.org/2000/svg" xmlns:xlink="http://www.w3.org/1999/xlink" x="0px" y="0px"
	 viewBox="0 0 75.54 75.54" style="enable-background:new 0 0 75.54 75.54;" xml:space="preserve">
<style type="text/css">
	.st0{fill:#FFFFFF;}
	.st1{fill:none;stroke:#C6C6C6;}
	.st2{fill:none;stroke:#706F6F;stroke-width:4;stroke-linecap:round;stroke-linejoin:round;}
	.st3{fill:none;stroke:#C6C6C6;stroke-width:4;stroke-linecap:round;stroke-linejoin:round;}
	.st4{fill:#9D9D9C;}
</style>
<polygon class="st0" points="0.15,0.47 0.15,76 75.68,76 75.68,0.47 0.15,0.47 "/>
<polygon class="st1" points="0.15,0.47 0.15,76 75.68,76 75.68,0.47 0.15,0.47 "/>
<path class="st2" d="M9.51,32.07h6.13 M10.29,39.44h2.29 M16.58,46.81h4.36 M11.39,54.07h0.73 M8.4,61.55h1 M13.66,61.55h32.7"/>
<path class="st3" d="M17.37,54.18h15.69 M26.5,46.81h41 M18.06,39.44h32.69"/>
<line class="st2" x1="38.92" y1="54.32" x2="59.7" y2="54.32"/>
<path class="st4" d="M32.64,35.06c6.26,0,11.34-5.08,11.34-11.34S38.9,12.38,32.64,12.38c-6.26,0-11.34,5.08-11.34,11.34l0,0
	C21.3,29.98,26.38,35.06,32.64,35.06z"/>
<path class="st4" d="M56.99,34.52c4.7,0,8.5-3.17,8.5-7.09s-3.8-7.08-8.5-7.08s-8.5,3.17-8.5,7.08S52.29,34.52,56.99,34.52
	L56.99,34.52z"/>
</svg>
