<?xml version="1.0" encoding="utf-8"?>
<!-- Generator: Adobe Illustrator 25.4.1, SVG Export Plug-In . SVG Version: 6.00 Build 0)  -->
<svg version="1.1" id="Ebene_1" xmlns="http://www.w3.org/2000/svg" xmlns:xlink="http://www.w3.org/1999/xlink" x="0px" y="100px"
	 viewBox="0 0 1000 1000" style="enable-background:new 0 0 1000 1000;" xml:space="preserve">
<style type="text/css">
	.st0{fill:#FF3333;}
	.cl_nrT{font-size:"2em"}
</style>
<g>
	<text class="cl_nrT">
		<textPath href="#id_path">1</textPath>
	</text>
</g>
<g>

	<path id="id_path" class="st0" d="M500,42.7c162.1,0,294,131.9,294,294c0,51.6-13.7,102.4-39.5,147L500,924.7l-254.5-441
		c-25.8-44.6-39.5-95.4-39.5-147C206,174.5,337.9,42.7,500,42.7L500,42.7z M500,451c63,0,114.3-51.3,114.3-114.3
		S563,222.4,500,222.4s-114.3,51.3-114.3,114.3S437,451,500,451z M500,10c-180.4,0-326.7,146.3-326.7,326.7
		c0,59.6,16,115.3,43.9,163.3L500,990l282.8-490c27.8-48.1,43.9-103.8,43.9-163.3C826.6,156.3,680.4,10,500,10L500,10L500,10z
		 M500,418.3c-45.1,0-81.7-36.5-81.7-81.6s36.6-81.6,81.7-81.6s81.6,36.6,81.6,81.6C581.7,381.8,545.1,418.3,500,418.3L500,418.3z"
		/>
</g>
</svg>
