<svg id="Ebene_1" data-name="Ebene 1" xmlns="http://www.w3.org/2000/svg" viewBox="0 0 453.54 400.87">
    <defs>
        <style>
            .cls-1{fill:#fff;}.cls-10,.cls-13,.cls-15,.cls-16,.cls-17,.cls-18,.cls-2,.cls-20,.cls-22,.cls-23,.cls-24,.cls-25,.cls-28,.cls-30,.cls-31,.cls-32,.cls-33,.cls-4,.cls-5,.cls-6,.cls-7,.cls-9{fill:none;}.cls-2,.cls-30,.cls-31,.cls-33{stroke:#c6c6c6;}.cls-3{fill:#9f2538;}.cls-13,.cls-4{stroke:#fab200;}.cls-22,.cls-4{stroke-width:3px;}.cls-5,.cls-6{stroke:#9f2538;}.cls-10,.cls-13,.cls-15,.cls-16,.cls-17,.cls-18,.cls-20,.cls-23,.cls-24,.cls-25,.cls-28,.cls-30,.cls-31,.cls-32,.cls-33,.cls-5,.cls-6{stroke-linecap:round;}.cls-10,.cls-13,.cls-15,.cls-17,.cls-18,.cls-20,.cls-23,.cls-24,.cls-25,.cls-28,.cls-30,.cls-32,.cls-33,.cls-5,.cls-6{stroke-linejoin:round;}.cls-23,.cls-5{stroke-width:2px;}.cls-10,.cls-13,.cls-17,.cls-18,.cls-20,.cls-24,.cls-25,.cls-28,.cls-32,.cls-33,.cls-6{stroke-width:4px;}.cls-7{stroke:#3fa535;}.cls-8{font-size:12px;fill:#575756;font-family:MyriadPro-Semibold,
            Myriad
            Pro;font-weight:600;}.cls-9{stroke:#575756;stroke-width:0.5px;}.cls-10{stroke:#98bc1f;}.cls-11{fill:#fab200;}.cls-12{fill:#009fe3;}.cls-14{fill:#98bc1f;}.cls-15,.cls-16,.cls-18{stroke:#009fe3;}.cls-15,.cls-30{stroke-width:5px;}.cls-16,.cls-31{stroke-width:4px;}.cls-17{stroke:#b15922;}.cls-19{fill:#b15922;}.cls-20{stroke:#fff;}.cls-21{fill:#3c3c3b;}.cls-22,.cls-28{stroke:#e3e3e3;}.cls-23,.cls-24{stroke:#3c3c3b;}.cls-25{stroke:#9d9d9c;}.cls-26{fill:#e3e3e3;}.cls-27{fill:#c6c6c6;}.cls-29{fill:#9d9d9c;}.cls-32{stroke:#706f6f;}.cls-34{fill:#706f6f;}
        </style>
    </defs>
    <title>OESL Icons_quadrat_3</title>
    <polygon class="cls-1" points="218.64 0.5 218.64 76.04 294.18 76.04 294.18 0.5 218.64 0.5 218.64 0.5"/>
    <polygon class="cls-2" points="218.64 0.5 218.64 76.04 294.18 76.04 294.18 0.5 218.64 0.5 218.64 0.5"/>
    <path class="cls-3"
          d="M357.46,251.07a5.74,5.74,0,0,0-4.19-2.94,6.79,6.79,0,0,0-.7-4.41,6.85,6.85,0,1,0-12,6.54c1.25,2.29,4.32,4.34,4.8,5.23,3.61,2.36,7,5,9.8,3.45a5.8,5.8,0,0,0,2.33-7.87Z"
          transform="translate(-71 -220.89)"/>
    <path class="cls-4"
          d="M357.46,251.07a5.74,5.74,0,0,0-4.19-2.94,6.79,6.79,0,0,0-.7-4.41,6.85,6.85,0,1,0-12,6.54c1.25,2.29,4.32,4.34,4.8,5.23,3.61,2.36,7,5,9.8,3.45a5.8,5.8,0,0,0,2.33-7.87Z"
          transform="translate(-71 -220.89)"/>
    <path class="cls-3"
          d="M352.4,259.93c-1.47-2.69-11.32-7.7-16.61-5a6.84,6.84,0,0,0,6.53,12,5.6,5.6,0,0,0,.62-.42,5.81,5.81,0,0,0,9.46-6.61Z"
          transform="translate(-71 -220.89)"/>
    <path class="cls-4"
          d="M352.4,259.93c-1.47-2.69-11.32-7.7-16.61-5a6.84,6.84,0,0,0,6.53,12,5.6,5.6,0,0,0,.62-.42,5.81,5.81,0,0,0,9.46-6.61Z"
          transform="translate(-71 -220.89)"/>
    <path class="cls-5" d="M336.17,248.89l-6.85-7.33m5.85,9.25-9.9-1.47" transform="translate(-71 -220.89)"/>
    <line class="cls-6" x1="285.68" y1="41.07" x2="265.42" y2="29.24"/>
    <path class="cls-7" d="M329.56,242" transform="translate(-71 -220.89)"/>
    <path class="cls-7" d="M363.48,244.29" transform="translate(-71 -220.89)"/>
    <polygon class="cls-1" points="218.64 104.2 218.64 179.74 294.18 179.74 294.18 104.2 218.64 104.2 218.64 104.2"/>
    <polygon class="cls-2" points="218.64 104.2 218.64 179.74 294.18 179.74 294.18 104.2 218.64 104.2 218.64 104.2"/>
    <polygon class="cls-1"
             points="218.64 213.11 218.64 288.65 294.18 288.65 294.18 213.11 218.64 213.11 218.64 213.11"/>
    <polygon class="cls-2"
             points="218.64 213.11 218.64 288.65 294.18 288.65 294.18 213.11 218.64 213.11 218.64 213.11"/>
    <polygon class="cls-1"
             points="218.64 324.84 218.64 400.37 294.18 400.37 294.18 324.84 218.64 324.84 218.64 324.84"/>
    <polygon class="cls-2"
             points="218.64 324.84 218.64 400.37 294.18 400.37 294.18 324.84 218.64 324.84 218.64 324.84"/>
    <path class="cls-1"
          d="M76.92,248.49a5.67,5.67,0,0,0-5.67,5.67v10a5.67,5.67,0,0,0,5.67,5.67h27.85a5.66,5.66,0,0,0,5.66-5.67v-10a5.66,5.66,0,0,0-5.66-5.67Z"
          transform="translate(-71 -220.89)"/>
    <text class="cls-8" transform="translate(10.3 42.76)">S15</text>
    <path class="cls-9"
          d="M76.92,248.49a5.67,5.67,0,0,0-5.67,5.67v10a5.67,5.67,0,0,0,5.67,5.67h27.85a5.66,5.66,0,0,0,5.66-5.67v-10a5.66,5.66,0,0,0-5.66-5.67Z"
          transform="translate(-71 -220.89)"/>
    <path class="cls-1"
          d="M76.92,357a5.67,5.67,0,0,0-5.67,5.67v10a5.67,5.67,0,0,0,5.67,5.67h27.85a5.66,5.66,0,0,0,5.66-5.67v-10a5.66,5.66,0,0,0-5.66-5.67Z"
          transform="translate(-71 -220.89)"/>
    <text class="cls-8" transform="translate(10.3 151.22)">S14</text>
    <path class="cls-9"
          d="M76.92,357a5.67,5.67,0,0,0-5.67,5.67v10a5.67,5.67,0,0,0,5.67,5.67h27.85a5.66,5.66,0,0,0,5.66-5.67v-10a5.66,5.66,0,0,0-5.66-5.67Z"
          transform="translate(-71 -220.89)"/>
    <path class="cls-1"
          d="M76.92,465.41a5.66,5.66,0,0,0-5.67,5.66v10a5.67,5.67,0,0,0,5.67,5.67h27.85a5.66,5.66,0,0,0,5.66-5.67v-10a5.65,5.65,0,0,0-5.66-5.66Z"
          transform="translate(-71 -220.89)"/>
    <text class="cls-8" transform="translate(8.5 259.69)">K1.1</text>
    <path class="cls-9"
          d="M76.92,465.41a5.66,5.66,0,0,0-5.67,5.66v10a5.67,5.67,0,0,0,5.67,5.67h27.85a5.66,5.66,0,0,0,5.66-5.67v-10a5.65,5.65,0,0,0-5.66-5.66Z"
          transform="translate(-71 -220.89)"/>
    <path class="cls-1"
          d="M76.92,573.86a5.67,5.67,0,0,0-5.67,5.67v10a5.67,5.67,0,0,0,5.67,5.67h27.85a5.66,5.66,0,0,0,5.66-5.67v-10a5.66,5.66,0,0,0-5.66-5.67Z"
          transform="translate(-71 -220.89)"/>
    <text class="cls-8" transform="translate(8.5 368.14)">K1.1</text>
    <path class="cls-9"
          d="M76.92,573.86a5.67,5.67,0,0,0-5.67,5.67v10a5.67,5.67,0,0,0,5.67,5.67h27.85a5.66,5.66,0,0,0,5.66-5.67v-10a5.66,5.66,0,0,0-5.66-5.67Z"
          transform="translate(-71 -220.89)"/>
    <path class="cls-10" d="M341,275.14v15.6m-10.8-18.82v19.22m-10.8-16.21v15.81" transform="translate(-71 -220.89)"/>
    <path class="cls-11" d="M319.23,270.24a6,6,0,1,0-6-6,6,6,0,0,0,6,6Z" transform="translate(-71 -220.89)"/>
    <path class="cls-12" d="M304.88,238.39a6.61,6.61,0,1,0-6.6-6.6,6.61,6.61,0,0,0,6.6,6.6Z"
          transform="translate(-71 -220.89)"/>
    <path class="cls-12" d="M315.11,254.05a6.61,6.61,0,1,0-6.61-6.61,6.61,6.61,0,0,0,6.61,6.61Z"
          transform="translate(-71 -220.89)"/>
    <line class="cls-13" x1="258.41" y1="9.24" x2="248.95" y2="12.91"/>
    <path class="cls-11" d="M317.47,240.47a5.67,5.67,0,1,0-5.66-5.67,5.67,5.67,0,0,0,5.66,5.67Z"
          transform="translate(-71 -220.89)"/>
    <path class="cls-11" d="M309.13,245.61a5.67,5.67,0,1,0-5.66-5.66,5.66,5.66,0,0,0,5.66,5.66Z"
          transform="translate(-71 -220.89)"/>
    <path class="cls-11" d="M301.44,249.38a4.72,4.72,0,1,0-4.72-4.71,4.72,4.72,0,0,0,4.72,4.71Z"
          transform="translate(-71 -220.89)"/>
    <path class="cls-14" d="M308.51,361a11.46,11.46,0,1,0-11.46-11.46A11.46,11.46,0,0,0,308.51,361Z"
          transform="translate(-71 -220.89)"/>
    <path class="cls-14" d="M339.58,362.68a6.69,6.69,0,1,0-6.69-6.69,6.69,6.69,0,0,0,6.69,6.69Z"
          transform="translate(-71 -220.89)"/>
    <path class="cls-15" d="M298.13,390.86s5.95-4.89,17.2-5,17.19,6.46,29.57,6.46c10.78,0,13.73-4.33,13.73-4.33"
          transform="translate(-71 -220.89)"/>
    <path class="cls-11" d="M353.21,352.31a6,6,0,1,0-6-6,6,6,0,0,0,6,6Z" transform="translate(-71 -220.89)"/>
    <path class="cls-14" d="M301.25,379a5.67,5.67,0,1,0-5.67-5.66,5.66,5.66,0,0,0,5.67,5.66Z"
          transform="translate(-71 -220.89)"/>
    <path class="cls-12"
          d="M350.84,371.3s-13.06,9.27-25.1,6-13.06-9.62-13.06-9.62,4.08-5,16.12-1.81,18.71,17.79,18.71,17.79m3.34-12.56-3.55,13"
          transform="translate(-71 -220.89)"/>
    <path class="cls-16"
          d="M350.84,371.3s-13.06,9.27-25.1,6-13.06-9.62-13.06-9.62,4.08-5,16.12-1.81,18.71,17.79,18.71,17.79m3.34-12.56-3.55,13"
          transform="translate(-71 -220.89)"/>
    <path class="cls-10" d="M311.26,469.21v24.36m-10.8-6.4v6.4" transform="translate(-71 -220.89)"/>
    <line class="cls-17" x1="229.32" y1="280.44" x2="256.68" y2="280.44"/>
    <line class="cls-18" x1="264.19" y1="280.44" x2="288.55" y2="280.44"/>
    <path class="cls-11" d="M300.47,479a6,6,0,1,0-6-6,6,6,0,0,0,6,6Z" transform="translate(-71 -220.89)"/>
    <path class="cls-14" d="M312,464.63a10.8,10.8,0,1,0-10.8-10.8,10.8,10.8,0,0,0,10.8,10.8Z"
          transform="translate(-71 -220.89)"/>
    <path class="cls-19" d="M338.74,495.37a18.55,18.55,0,1,0-18.55-18.55,18.54,18.54,0,0,0,18.55,18.55Z"
          transform="translate(-71 -220.89)"/>
    <path class="cls-20" d="M329.47,480.63a11.26,11.26,0,0,0,9.35,5.36,11.38,11.38,0,0,0,9.47-5.36"
          transform="translate(-71 -220.89)"/>
    <path class="cls-1" d="M331.43,474.61a2.84,2.84,0,1,0-2.84-2.84,2.84,2.84,0,0,0,2.84,2.84Z"
          transform="translate(-71 -220.89)"/>
    <path class="cls-1" d="M346.05,474.61a2.84,2.84,0,1,0-2.84-2.84,2.84,2.84,0,0,0,2.84,2.84Z"
          transform="translate(-71 -220.89)"/>
    <path class="cls-3"
          d="M356.58,438.78c-3.57,0-5,2-5.4,2.61a6,6,0,0,0-5.4-2.61c-4.2,0-6.13,5.8-3.63,9.29s9,10.31,9,10.31,6.53-6.83,9-10.31.57-9.29-3.62-9.29Z"
          transform="translate(-71 -220.89)"/>
    <path class="cls-10" d="M298,577.16v29.3m9.39-16.52v15.81m10.45-15.81v15.81" transform="translate(-71 -220.89)"/>
    <line class="cls-17" x1="224.11" y1="392.63" x2="257.2" y2="392.63"/>
    <line class="cls-18" x1="264.71" y1="392.63" x2="289.58" y2="392.63"/>
    <path class="cls-19" d="M342.8,606.84a18.55,18.55,0,1,0-18.55-18.54,18.55,18.55,0,0,0,18.55,18.54Z"
          transform="translate(-71 -220.89)"/>
    <path class="cls-20" d="M333.53,592.1a10.93,10.93,0,0,0,18.82,0" transform="translate(-71 -220.89)"/>
    <path class="cls-1" d="M335.49,586.08a2.84,2.84,0,1,0-2.83-2.83,2.84,2.84,0,0,0,2.83,2.83Z"
          transform="translate(-71 -220.89)"/>
    <path class="cls-1" d="M350.11,586.08a2.84,2.84,0,1,0-2.84-2.83,2.83,2.83,0,0,0,2.84,2.83Z"
          transform="translate(-71 -220.89)"/>
    <path class="cls-6"
          d="M326,571.55s-5.24-16.22-16.65-17.72c-10.28-1.34-12.47,1.28-14.31,4.54s-1.12,8.84,6.8,11.1c7.44,2.11,8.23-2.24,15.31-1.89,3.13.16,8.85,4,8.85,4Z"
          transform="translate(-71 -220.89)"/>
    <path class="cls-11" d="M329.31,347.6a6,6,0,1,0-6-6,6,6,0,0,0,6,6Z" transform="translate(-71 -220.89)"/>
    <polygon class="cls-1" points="377.51 0.5 377.51 76.04 453.04 76.04 453.04 0.5 377.51 0.5 377.51 0.5"/>
    <polygon class="cls-2" points="377.51 0.5 377.51 76.04 453.04 76.04 453.04 0.5 377.51 0.5 377.51 0.5"/>
    <path class="cls-21"
          d="M516.33,251.07a5.74,5.74,0,0,0-4.19-2.94,6.84,6.84,0,1,0-12.74,2.13c1.25,2.29,4.32,4.34,4.8,5.23,3.6,2.36,7,5,9.8,3.45a5.8,5.8,0,0,0,2.33-7.87Z"
          transform="translate(-71 -220.89)"/>
    <path class="cls-22"
          d="M516.33,251.07a5.74,5.74,0,0,0-4.19-2.94,6.84,6.84,0,1,0-12.74,2.13c1.25,2.29,4.32,4.34,4.8,5.23,3.6,2.36,7,5,9.8,3.45a5.8,5.8,0,0,0,2.33-7.87Z"
          transform="translate(-71 -220.89)"/>
    <path class="cls-21"
          d="M511.26,259.93c-1.46-2.69-11.31-7.7-16.6-5a6.84,6.84,0,0,0,6.53,12c.22-.12.41-.28.62-.42a5.8,5.8,0,0,0,9.45-6.61Z"
          transform="translate(-71 -220.89)"/>
    <path class="cls-22"
          d="M511.26,259.93c-1.46-2.69-11.31-7.7-16.6-5a6.84,6.84,0,0,0,6.53,12c.22-.12.41-.28.62-.42a5.8,5.8,0,0,0,9.45-6.61Z"
          transform="translate(-71 -220.89)"/>
    <path class="cls-23" d="M495,248.89l-6.84-7.33m5.84,9.25-9.89-1.47" transform="translate(-71 -220.89)"/>
    <line class="cls-24" x1="444.55" y1="41.07" x2="424.29" y2="29.24"/>
    <path class="cls-7" d="M488.43,242" transform="translate(-71 -220.89)"/>
    <path class="cls-7" d="M522.34,244.29" transform="translate(-71 -220.89)"/>
    <polygon class="cls-1" points="377.51 104.2 377.51 179.74 453.04 179.74 453.04 104.2 377.51 104.2 377.51 104.2"/>
    <polygon class="cls-2" points="377.51 104.2 377.51 179.74 453.04 179.74 453.04 104.2 377.51 104.2 377.51 104.2"/>
    <polygon class="cls-1"
             points="377.51 213.11 377.51 288.65 453.04 288.65 453.04 213.11 377.51 213.11 377.51 213.11"/>
    <polygon class="cls-2"
             points="377.51 213.11 377.51 288.65 453.04 288.65 453.04 213.11 377.51 213.11 377.51 213.11"/>
    <polygon class="cls-1"
             points="377.51 324.84 377.51 400.37 453.04 400.37 453.04 324.84 377.51 324.84 377.51 324.84"/>
    <polygon class="cls-2"
             points="377.51 324.84 377.51 400.37 453.04 400.37 453.04 324.84 377.51 324.84 377.51 324.84"/>
    <path class="cls-25" d="M499.88,275.14v15.6m-10.8-18.82v19.22m-10.8-16.21v15.81"
          transform="translate(-71 -220.89)"/>
    <path class="cls-26" d="M478.09,270.24a6,6,0,1,0-6-6,6,6,0,0,0,6,6Z" transform="translate(-71 -220.89)"/>
    <path class="cls-27" d="M463.75,238.39a6.61,6.61,0,1,0-6.61-6.6,6.61,6.61,0,0,0,6.61,6.6Z"
          transform="translate(-71 -220.89)"/>
    <path class="cls-27" d="M474,254.05a6.61,6.61,0,1,0-6.61-6.61,6.61,6.61,0,0,0,6.61,6.61Z"
          transform="translate(-71 -220.89)"/>
    <line class="cls-28" x1="417.28" y1="9.24" x2="407.81" y2="12.91"/>
    <path class="cls-26" d="M476.34,240.47a5.67,5.67,0,1,0-5.66-5.67,5.66,5.66,0,0,0,5.66,5.67Z"
          transform="translate(-71 -220.89)"/>
    <path class="cls-26" d="M468,245.61a5.67,5.67,0,1,0-5.67-5.66,5.66,5.66,0,0,0,5.67,5.66Z"
          transform="translate(-71 -220.89)"/>
    <path class="cls-26" d="M460.3,249.38a4.72,4.72,0,1,0-4.72-4.71,4.71,4.71,0,0,0,4.72,4.71Z"
          transform="translate(-71 -220.89)"/>
    <path class="cls-29" d="M467.38,361a11.46,11.46,0,1,0-11.46-11.46A11.46,11.46,0,0,0,467.38,361Z"
          transform="translate(-71 -220.89)"/>
    <path class="cls-29" d="M498.45,362.68a6.69,6.69,0,1,0-6.69-6.69,6.7,6.7,0,0,0,6.69,6.69Z"
          transform="translate(-71 -220.89)"/>
    <path class="cls-30" d="M457,390.86s5.95-4.89,17.2-5,17.18,6.46,29.56,6.46c10.79,0,13.73-4.33,13.73-4.33"
          transform="translate(-71 -220.89)"/>
    <path class="cls-26" d="M512.08,352.31a6,6,0,1,0-6-6,6,6,0,0,0,6,6Z" transform="translate(-71 -220.89)"/>
    <path class="cls-29" d="M460.12,379a5.67,5.67,0,1,0-5.67-5.66,5.66,5.66,0,0,0,5.67,5.66Z"
          transform="translate(-71 -220.89)"/>
    <path class="cls-27"
          d="M509.7,371.3s-13.06,9.27-25.1,6-13.05-9.62-13.05-9.62,4.08-5,16.12-1.81,18.71,17.79,18.71,17.79m3.33-12.56-3.54,13"
          transform="translate(-71 -220.89)"/>
    <path class="cls-31"
          d="M509.7,371.3s-13.06,9.27-25.1,6-13.05-9.62-13.05-9.62,4.08-5,16.12-1.81,18.71,17.79,18.71,17.79m3.33-12.56-3.54,13"
          transform="translate(-71 -220.89)"/>
    <path class="cls-25" d="M470.12,469.21v24.36m-10.8-6.4v6.4" transform="translate(-71 -220.89)"/>
    <line class="cls-32" x1="388.18" y1="280.44" x2="415.55" y2="280.44"/>
    <line class="cls-33" x1="423.06" y1="280.44" x2="447.41" y2="280.44"/>
    <path class="cls-26" d="M459.34,479a6,6,0,1,0-6-6,6,6,0,0,0,6,6Z" transform="translate(-71 -220.89)"/>
    <path class="cls-29" d="M470.9,464.63a10.8,10.8,0,1,0-10.79-10.8,10.79,10.79,0,0,0,10.79,10.8Z"
          transform="translate(-71 -220.89)"/>
    <path class="cls-34" d="M497.6,495.37a18.55,18.55,0,1,0-18.54-18.55,18.54,18.54,0,0,0,18.54,18.55Z"
          transform="translate(-71 -220.89)"/>
    <path class="cls-20" d="M488.34,480.63a11.26,11.26,0,0,0,9.35,5.36,11.38,11.38,0,0,0,9.47-5.36"
          transform="translate(-71 -220.89)"/>
    <path class="cls-1" d="M490.29,474.61a2.84,2.84,0,1,0-2.83-2.84,2.84,2.84,0,0,0,2.83,2.84Z"
          transform="translate(-71 -220.89)"/>
    <path class="cls-1" d="M504.91,474.61a2.84,2.84,0,1,0-2.83-2.84,2.84,2.84,0,0,0,2.83,2.84Z"
          transform="translate(-71 -220.89)"/>
    <path class="cls-21"
          d="M515.44,438.78a6,6,0,0,0-5.4,2.61c-.36-.6-1.83-2.61-5.4-2.61-4.19,0-6.12,5.8-3.63,9.29s9,10.31,9,10.31,6.54-6.83,9-10.31.57-9.29-3.63-9.29Z"
          transform="translate(-71 -220.89)"/>
    <path class="cls-25" d="M456.84,577.16v29.3m9.39-16.52v15.81m10.45-15.81v15.81" transform="translate(-71 -220.89)"/>
    <line class="cls-32" x1="382.98" y1="392.63" x2="416.07" y2="392.63"/>
    <line class="cls-33" x1="423.58" y1="392.63" x2="448.45" y2="392.63"/>
    <path class="cls-34" d="M501.67,606.84a18.55,18.55,0,1,0-18.55-18.54,18.55,18.55,0,0,0,18.55,18.54Z"
          transform="translate(-71 -220.89)"/>
    <path class="cls-20" d="M492.4,592.1a10.93,10.93,0,0,0,18.82,0" transform="translate(-71 -220.89)"/>
    <path class="cls-1" d="M494.36,586.08a2.84,2.84,0,1,0-2.84-2.83,2.83,2.83,0,0,0,2.84,2.83Z"
          transform="translate(-71 -220.89)"/>
    <path class="cls-1" d="M509,586.08a2.84,2.84,0,1,0-2.84-2.83,2.83,2.83,0,0,0,2.84,2.83Z"
          transform="translate(-71 -220.89)"/>
    <path class="cls-24"
          d="M484.91,571.55s-5.24-16.22-16.65-17.72c-10.28-1.34-12.47,1.28-14.31,4.54s-1.12,8.84,6.8,11.1c7.44,2.11,8.23-2.24,15.31-1.89,3.12.16,8.85,4,8.85,4Z"
          transform="translate(-71 -220.89)"/>
    <path class="cls-26" d="M488.17,347.6a6,6,0,1,0-6-6,6,6,0,0,0,6,6Z" transform="translate(-71 -220.89)"/>
</svg>