<svg id="Ebene_1" data-name="Ebene 1" xmlns="http://www.w3.org/2000/svg" viewBox="0 0 453.54 727.29">
    <defs>
        <style>
            .cls-1{fill:#fff;}.cls-10,.cls-11,.cls-12,.cls-13,.cls-14,.cls-19,.cls-2,.cls-20,.cls-22,.cls-23,.cls-24,.cls-25,.cls-26,.cls-27,.cls-4,.cls-5,.cls-6,.cls-8,.cls-9{fill:none;}.cls-2,.cls-20,.cls-24,.cls-25{stroke:#c6c6c6;}.cls-3{font-size:12px;fill:#575756;font-family:MyriadPro-Semibold,
            Myriad
            Pro;font-weight:600;}.cls-4{stroke:#575756;stroke-width:0.5px;}.cls-14,.cls-5,.cls-9{stroke:#b15922;}.cls-10,.cls-11,.cls-12,.cls-13,.cls-14,.cls-19,.cls-20,.cls-22,.cls-23,.cls-24,.cls-25,.cls-26,.cls-27,.cls-5,.cls-6,.cls-8,.cls-9{stroke-linecap:round;stroke-linejoin:round;}.cls-13,.cls-19,.cls-20,.cls-26,.cls-5,.cls-6{stroke-width:4px;}.cls-11,.cls-12,.cls-6{stroke:#009fe3;}.cls-7{fill:#98bc1f;}.cls-8{stroke:#878787;}.cls-10,.cls-22,.cls-23,.cls-8,.cls-9{stroke-width:4px;}.cls-10,.cls-13{stroke:#98bc1f;}.cls-11,.cls-14,.cls-24,.cls-27{stroke-width:4px;}.cls-12,.cls-25{stroke-width:4px;}.cls-15{fill:#fab200;}.cls-16{fill:#009fe3;}.cls-17{fill:#b15922;}.cls-18{fill:#b2b2b2;}.cls-19,.cls-22,.cls-27{stroke:#706f6f;}.cls-21{fill:#9d9d9c;}.cls-23,.cls-26{stroke:#9d9d9c;}.cls-28{fill:#e3e3e3;}.cls-29{fill:#c6c6c6;}.cls-30{fill:#706f6f;}
        </style>
    </defs>
    <title>OESL Icons_quadrat_2</title>
    <polygon class="cls-1"
             points="218.64 108.96 218.64 184.49 294.18 184.49 294.18 108.96 218.64 108.96 218.64 108.96"/>
    <polygon class="cls-2"
             points="218.64 108.96 218.64 184.49 294.18 184.49 294.18 108.96 218.64 108.96 218.64 108.96"/>
    <polygon class="cls-1" points="218.64 0.5 218.64 76.04 294.18 76.04 294.18 0.5 218.64 0.5 218.64 0.5"/>
    <polygon class="cls-2" points="218.64 0.5 218.64 76.04 294.18 76.04 294.18 0.5 218.64 0.5 218.64 0.5"/>
    <polygon class="cls-1"
             points="218.64 542.79 218.64 618.33 294.18 618.33 294.18 542.79 218.64 542.79 218.64 542.79"/>
    <polygon class="cls-2"
             points="218.64 542.79 218.64 618.33 294.18 618.33 294.18 542.79 218.64 542.79 218.64 542.79"/>
    <polygon class="cls-1"
             points="218.64 651.25 218.64 726.79 294.18 726.79 294.18 651.25 218.64 651.25 218.64 651.25"/>
    <polygon class="cls-2"
             points="218.64 651.25 218.64 726.79 294.18 726.79 294.18 651.25 218.64 651.25 218.64 651.25"/>
    <polygon class="cls-1"
             points="218.64 217.42 218.64 292.95 294.18 292.95 294.18 217.42 218.64 217.42 218.64 217.42"/>
    <polygon class="cls-2"
             points="218.64 217.42 218.64 292.95 294.18 292.95 294.18 217.42 218.64 217.42 218.64 217.42"/>
    <polygon class="cls-1"
             points="218.64 325.88 218.64 401.41 294.18 401.41 294.18 325.88 218.64 325.88 218.64 325.88"/>
    <polygon class="cls-2"
             points="218.64 325.88 218.64 401.41 294.18 401.41 294.18 325.88 218.64 325.88 218.64 325.88"/>
    <polygon class="cls-1"
             points="218.64 434.33 218.64 509.87 294.18 509.87 294.18 434.33 218.64 434.33 218.64 434.33"/>
    <polygon class="cls-2"
             points="218.64 434.33 218.64 509.87 294.18 509.87 294.18 434.33 218.64 434.33 218.64 434.33"/>
    <path class="cls-1"
          d="M76.92,85.49a5.67,5.67,0,0,0-5.67,5.67v10a5.67,5.67,0,0,0,5.67,5.67h27.85a5.66,5.66,0,0,0,5.66-5.67v-10a5.66,5.66,0,0,0-5.66-5.67Z"
          transform="translate(-71 -57.89)"/>
    <text class="cls-3" transform="translate(13.51 42.76)">S6</text>
    <path class="cls-4"
          d="M76.92,85.49a5.67,5.67,0,0,0-5.67,5.67v10a5.67,5.67,0,0,0,5.67,5.67h27.85a5.66,5.66,0,0,0,5.66-5.67v-10a5.66,5.66,0,0,0-5.66-5.67Z"
          transform="translate(-71 -57.89)"/>
    <path class="cls-1"
          d="M76.92,194a5.67,5.67,0,0,0-5.67,5.67v10a5.67,5.67,0,0,0,5.67,5.67h27.85a5.66,5.66,0,0,0,5.66-5.67v-10a5.66,5.66,0,0,0-5.66-5.67Z"
          transform="translate(-71 -57.89)"/>
    <text class="cls-3" transform="translate(13.51 151.22)">S7</text>
    <path class="cls-4"
          d="M76.92,194a5.67,5.67,0,0,0-5.67,5.67v10a5.67,5.67,0,0,0,5.67,5.67h27.85a5.66,5.66,0,0,0,5.66-5.67v-10a5.66,5.66,0,0,0-5.66-5.67Z"
          transform="translate(-71 -57.89)"/>
    <path class="cls-1"
          d="M76.92,302.41a5.66,5.66,0,0,0-5.67,5.66v10a5.67,5.67,0,0,0,5.67,5.67h27.85a5.66,5.66,0,0,0,5.66-5.67v-10a5.65,5.65,0,0,0-5.66-5.66Z"
          transform="translate(-71 -57.89)"/>
    <text class="cls-3" transform="translate(13.51 259.69)">S3</text>
    <path class="cls-4"
          d="M76.92,302.41a5.66,5.66,0,0,0-5.67,5.66v10a5.67,5.67,0,0,0,5.67,5.67h27.85a5.66,5.66,0,0,0,5.66-5.67v-10a5.65,5.65,0,0,0-5.66-5.66Z"
          transform="translate(-71 -57.89)"/>
    <line class="cls-5" x1="240.58" y1="494.05" x2="289.19" y2="494.05"/>
    <line class="cls-6" x1="224.43" y1="494.05" x2="245.75" y2="494.05"/>
    <path class="cls-7" d="M299.18,546.18c2.95,0,5.34-2.68,5.34-6s-2.39-6-5.34-6-5.35,2.68-5.35,6,2.4,6,5.35,6Z"
          transform="translate(-71 -57.89)"/>
    <path class="cls-7"
          d="M334.63,546.18c4.38,0,7.93-4,7.93-8.88s-3.55-8.87-7.93-8.87-7.92,4-7.92,8.87,3.55,8.88,7.92,8.88Z"
          transform="translate(-71 -57.89)"/>
    <path class="cls-7"
          d="M320.28,546.18c5.32,0,9.64-4.84,9.64-10.8s-4.32-10.8-9.64-10.8-9.64,4.83-9.64,10.8,4.31,10.8,9.64,10.8Z"
          transform="translate(-71 -57.89)"/>
    <path class="cls-7" d="M310.72,546.18c5.52,0,10-5,10-11.2s-4.47-11.19-10-11.19-10,5-10,11.19,4.48,11.2,10,11.2Z"
          transform="translate(-71 -57.89)"/>
    <path class="cls-7" d="M318.75,528.43c5.52,0,10-5,10-11.2s-4.47-11.19-10-11.19-10,5-10,11.19,4.48,11.2,10,11.2Z"
          transform="translate(-71 -57.89)"/>
    <path class="cls-7"
          d="M349.62,546.18c6.8,0,12.31-6.18,12.31-13.79s-5.51-13.79-12.31-13.79-12.32,6.17-12.32,13.79,5.52,13.79,12.32,13.79Z"
          transform="translate(-71 -57.89)"/>
    <path class="cls-7"
          d="M332.87,539.46c6.8,0,12.32-6.17,12.32-13.79s-5.52-13.79-12.32-13.79-12.31,6.17-12.31,13.79,5.51,13.79,12.31,13.79Z"
          transform="translate(-71 -57.89)"/>
    <line class="cls-8" x1="226.15" y1="263.55" x2="233" y2="267.94"/>
    <path class="cls-7" d="M356.26,323.32a5.67,5.67,0,1,0-5.67-5.67,5.67,5.67,0,0,0,5.67,5.67Z"
          transform="translate(-71 -57.89)"/>
    <path class="cls-7" d="M345.07,346.61a8.51,8.51,0,1,0-8.5-8.51,8.51,8.51,0,0,0,8.5,8.51Z"
          transform="translate(-71 -57.89)"/>
    <line class="cls-9" x1="230.04" y1="246.93" x2="236.89" y2="251.32"/>
    <path class="cls-10" d="M315.59,313.56l21.7,13.32m-3.07-19.29,11.9,7.42" transform="translate(-71 -57.89)"/>
    <line class="cls-8" x1="274.89" y1="247.98" x2="276.05" y2="248.95"/>
    <path class="cls-10" d="M338.45,318.66,357,330.1m-38.19-6,10.07,6.33" transform="translate(-71 -57.89)"/>
    <path class="cls-9" d="M316.76,288.37l22.57,13.84m-45,8.4,18.22,10.06m-17.1-36.35,32.09,19.55"
          transform="translate(-71 -57.89)"/>
    <line class="cls-8" x1="228.23" y1="237.22" x2="260.32" y2="256.77"/>
    <line class="cls-9" x1="242.41" y1="271.94" x2="258.29" y2="281.75"/>
    <path class="cls-1"
          d="M76.92,410.86a5.67,5.67,0,0,0-5.67,5.67v10a5.67,5.67,0,0,0,5.67,5.67h27.85a5.66,5.66,0,0,0,5.66-5.67v-10a5.66,5.66,0,0,0-5.66-5.67Z"
          transform="translate(-71 -57.89)"/>
    <text class="cls-3" transform="translate(10.3 368.14)">S12</text>
    <path class="cls-4"
          d="M76.92,410.86a5.67,5.67,0,0,0-5.67,5.67v10a5.67,5.67,0,0,0,5.67,5.67h27.85a5.66,5.66,0,0,0,5.66-5.67v-10a5.66,5.66,0,0,0-5.66-5.67Z"
          transform="translate(-71 -57.89)"/>
    <path class="cls-1"
          d="M76.92,519.32A5.67,5.67,0,0,0,71.25,525v10a5.67,5.67,0,0,0,5.67,5.67h27.85a5.66,5.66,0,0,0,5.66-5.67V525a5.66,5.66,0,0,0-5.66-5.67Z"
          transform="translate(-71 -57.89)"/>
    <text class="cls-3" transform="translate(10.3 476.61)">S13</text>
    <path class="cls-4"
          d="M76.92,519.32A5.67,5.67,0,0,0,71.25,525v10a5.67,5.67,0,0,0,5.67,5.67h27.85a5.66,5.66,0,0,0,5.66-5.67V525a5.66,5.66,0,0,0-5.66-5.67Z"
          transform="translate(-71 -57.89)"/>
    <path class="cls-1"
          d="M76.92,627.78a5.67,5.67,0,0,0-5.67,5.67v10a5.67,5.67,0,0,0,5.67,5.67h27.85a5.66,5.66,0,0,0,5.66-5.67v-10a5.66,5.66,0,0,0-5.66-5.67Z"
          transform="translate(-71 -57.89)"/>
    <text class="cls-3" transform="translate(10.3 585.06)">S10</text>
    <path class="cls-4"
          d="M76.92,627.78a5.67,5.67,0,0,0-5.67,5.67v10a5.67,5.67,0,0,0,5.67,5.67h27.85a5.66,5.66,0,0,0,5.66-5.67v-10a5.66,5.66,0,0,0-5.66-5.67Z"
          transform="translate(-71 -57.89)"/>
    <path class="cls-1"
          d="M76.92,736.24a5.67,5.67,0,0,0-5.67,5.67v10a5.67,5.67,0,0,0,5.67,5.67h27.85a5.66,5.66,0,0,0,5.66-5.67v-10a5.66,5.66,0,0,0-5.66-5.67Z"
          transform="translate(-71 -57.89)"/>
    <text class="cls-3" transform="translate(10.3 693.52)">S11</text>
    <path class="cls-4"
          d="M76.92,736.24a5.67,5.67,0,0,0-5.67,5.67v10a5.67,5.67,0,0,0,5.67,5.67h27.85a5.66,5.66,0,0,0,5.66-5.67v-10a5.66,5.66,0,0,0-5.66-5.67Z"
          transform="translate(-71 -57.89)"/>
    <line class="cls-11" x1="271.56" y1="718.97" x2="286.06" y2="716.41"/>
    <line class="cls-5" x1="245.66" y1="671.68" x2="245.66" y2="709.41"/>
    <line class="cls-12" x1="275.29" y1="716.7" x2="289.37" y2="721"/>
    <line class="cls-13" x1="274.61" y1="685.06" x2="274.61" y2="696.23"/>
    <path class="cls-5" d="M309.75,761.94v5.19m21.51-5.19v5.19" transform="translate(-71 -57.89)"/>
    <path class="cls-13" d="M338.56,744.94V767.3m-38.17-10.43V767.3" transform="translate(-71 -57.89)"/>
    <line class="cls-5" x1="253.42" y1="693.6" x2="253.42" y2="709.41"/>
    <line class="cls-14" x1="222.99" y1="721.37" x2="236.82" y2="716.33"/>
    <line class="cls-14" x1="245.66" y1="715.29" x2="259.58" y2="720.08"/>
    <line class="cls-6" x1="257.89" y1="716.83" x2="272.61" y2="716.83"/>
    <line class="cls-14" x1="233.5" y1="721.39" x2="248.01" y2="718.83"/>
    <path class="cls-7" d="M323.9,746.8A10.77,10.77,0,1,0,313.13,736,10.77,10.77,0,0,0,323.9,746.8Z"
          transform="translate(-71 -57.89)"/>
    <path class="cls-7" d="M313.78,738.86a13.16,13.16,0,1,0-13.17-13.16,13.16,13.16,0,0,0,13.17,13.16Z"
          transform="translate(-71 -57.89)"/>
    <path class="cls-15" d="M300.39,752.69a7.72,7.72,0,1,0-7.71-7.72,7.72,7.72,0,0,0,7.71,7.72Z"
          transform="translate(-71 -57.89)"/>
    <path class="cls-15" d="M344.93,739.52a7.72,7.72,0,1,0-7.71-7.72,7.72,7.72,0,0,0,7.71,7.72Z"
          transform="translate(-71 -57.89)"/>
    <path class="cls-16"
          d="M355.08,769.51c4.28,0,7.75-3.18,7.75-7.09s-3.47-7.09-7.75-7.09-7.75,3.18-7.75,7.09,3.47,7.09,7.75,7.09Z"
          transform="translate(-71 -57.89)"/>
    <path class="cls-5" d="M299,198.45h6.12m-5.35,7.37h2.3m4,7.37h4.35m-9.55,7.26h.74m-3.73,7.48h1m4.27,0h32.69"
          transform="translate(-71 -57.89)"/>
    <path class="cls-6" d="M306.86,220.56h15.7M316,213.19H357m-49.44-7.37h32.7" transform="translate(-71 -57.89)"/>
    <line class="cls-5" x1="257.41" y1="162.81" x2="278.19" y2="162.81"/>
    <path class="cls-7" d="M322.08,201.44a11.34,11.34,0,1,0-11.34-11.34,11.34,11.34,0,0,0,11.34,11.34Z"
          transform="translate(-71 -57.89)"/>
    <path class="cls-7"
          d="M346.48,200.9c4.7,0,8.51-3.17,8.51-7.09s-3.81-7.08-8.51-7.08-8.5,3.17-8.5,7.08,3.81,7.09,8.5,7.09Z"
          transform="translate(-71 -57.89)"/>
    <line class="cls-5" x1="262.16" y1="576.33" x2="262.16" y2="603.61"/>
    <path class="cls-13" d="M300.69,646.78V661.5m21.19-15.81V661.5" transform="translate(-71 -57.89)"/>
    <line class="cls-5" x1="226.86" y1="611.38" x2="283.16" y2="611.38"/>
    <path class="cls-15" d="M321.36,641a6,6,0,1,0-6-6,6,6,0,0,0,6,6Z" transform="translate(-71 -57.89)"/>
    <path class="cls-7" d="M311.24,626.68a6,6,0,1,0-6-6,6,6,0,0,0,6,6Z" transform="translate(-71 -57.89)"/>
    <path class="cls-15" d="M300.69,642.63a6,6,0,1,0-6-6,6,6,0,0,0,6,6Z" transform="translate(-71 -57.89)"/>
    <path class="cls-16" d="M343,662.29a6,6,0,1,0-6-6,6,6,0,0,0,6,6Z" transform="translate(-71 -57.89)"/>
    <path class="cls-7" d="M333.68,629.39a11.88,11.88,0,1,0-11.88-11.88,11.87,11.87,0,0,0,11.88,11.88Z"
          transform="translate(-71 -57.89)"/>
    <line class="cls-13" x1="282.67" y1="582.56" x2="282.67" y2="603.61"/>
    <line class="cls-5" x1="240.29" y1="573.14" x2="240.29" y2="603.61"/>
    <path class="cls-15" d="M353.14,635.55a7,7,0,1,0-7-7,7,7,0,0,0,7,7Z" transform="translate(-71 -57.89)"/>
    <path class="cls-15" d="M353.14,625.06a5.67,5.67,0,1,0-5.67-5.67,5.67,5.67,0,0,0,5.67,5.67Z"
          transform="translate(-71 -57.89)"/>
    <path class="cls-15" d="M353.14,615.34a4.26,4.26,0,1,0-4.25-4.25,4.26,4.26,0,0,0,4.25,4.25Z"
          transform="translate(-71 -57.89)"/>
    <path class="cls-13" d="M337.72,90v13.55M326.92,90v13.55m-10.8-10v10" transform="translate(-71 -57.89)"/>
    <line class="cls-5" x1="225.43" y1="53.4" x2="272.23" y2="53.4"/>
    <path class="cls-6" d="M352.05,111.29h6.34m-56.07,8.41h6.34" transform="translate(-71 -57.89)"/>
    <path class="cls-5" d="M316.76,119.7h34m-41.59,8.41h34" transform="translate(-71 -57.89)"/>
    <path class="cls-15" d="M304,104.31a6,6,0,1,0-6-6,6,6,0,0,0,6,6Z" transform="translate(-71 -57.89)"/>
    <path class="cls-7" d="M337.79,83.8A10.8,10.8,0,1,0,327,73a10.8,10.8,0,0,0,10.8,10.8Z"
          transform="translate(-71 -57.89)"/>
    <path class="cls-15" d="M315.21,88c3.84,0,7-2.77,7-6.19s-3.12-6.19-7-6.19-7,2.77-7,6.19,3.12,6.19,7,6.19Z"
          transform="translate(-71 -57.89)"/>
    <path class="cls-15" d="M315.21,78.66c3.13,0,5.66-2.26,5.66-5s-2.53-5-5.66-5-5.67,2.26-5.67,5,2.53,5,5.67,5Z"
          transform="translate(-71 -57.89)"/>
    <path class="cls-15" d="M315.21,70A3.81,3.81,0,1,0,311,66.24,4,4,0,0,0,315.21,70Z"
          transform="translate(-71 -57.89)"/>
    <path class="cls-13" d="M329.53,417.56v24.36m-8.68-22.36v22.36m-10.09-15.81v15.81"
          transform="translate(-71 -57.89)"/>
    <line class="cls-5" x1="225.06" y1="391.79" x2="266.87" y2="391.79"/>
    <line class="cls-6" x1="275.69" y1="391.79" x2="289.19" y2="391.79"/>
    <path class="cls-17" d="M298.61,442.7a6,6,0,1,0-6-6,6,6,0,0,0,6,6Z" transform="translate(-71 -57.89)"/>
    <path class="cls-7" d="M330.31,413a10.8,10.8,0,1,0-10.8-10.8,10.8,10.8,0,0,0,10.8,10.8Z"
          transform="translate(-71 -57.89)"/>
    <path class="cls-18"
          d="M338.31,422.25a2.83,2.83,0,0,0-2.83,2.83v3.65a2.84,2.84,0,0,0,2.83,2.84h10.57a2.84,2.84,0,0,0,2.84-2.84v-3.65a2.84,2.84,0,0,0-2.84-2.83Z"
          transform="translate(-71 -57.89)"/>
    <path class="cls-18"
          d="M356.48,422.25a2.84,2.84,0,0,0-2.84,2.83v3.65a2.84,2.84,0,0,0,2.84,2.84h2.87a2.84,2.84,0,0,0,2.84-2.84v-3.65a2.84,2.84,0,0,0-2.84-2.83Z"
          transform="translate(-71 -57.89)"/>
    <path class="cls-18"
          d="M359.35,433.88a2.84,2.84,0,0,1,2.84,2.83v3.65a2.84,2.84,0,0,1-2.84,2.84H348.78a2.84,2.84,0,0,1-2.83-2.84v-3.65a2.83,2.83,0,0,1,2.83-2.83Z"
          transform="translate(-71 -57.89)"/>
    <path class="cls-18"
          d="M341.19,433.88a2.84,2.84,0,0,1,2.84,2.83v3.65a2.84,2.84,0,0,1-2.84,2.84h-2.88a2.84,2.84,0,0,1-2.83-2.84v-3.65a2.83,2.83,0,0,1,2.83-2.83Z"
          transform="translate(-71 -57.89)"/>
    <path class="cls-15" d="M310.55,421.54a7,7,0,1,0-7-7,7,7,0,0,0,7,7Z" transform="translate(-71 -57.89)"/>
    <path class="cls-15" d="M310.55,411.05a5.67,5.67,0,1,0-5.66-5.67,5.67,5.67,0,0,0,5.66,5.67Z"
          transform="translate(-71 -57.89)"/>
    <path class="cls-15" d="M310.55,401.33a4.26,4.26,0,1,0-4.25-4.25,4.26,4.26,0,0,0,4.25,4.25Z"
          transform="translate(-71 -57.89)"/>
    <polygon class="cls-1"
             points="377.51 108.96 377.51 184.49 453.04 184.49 453.04 108.96 377.51 108.96 377.51 108.96"/>
    <polygon class="cls-2"
             points="377.51 108.96 377.51 184.49 453.04 184.49 453.04 108.96 377.51 108.96 377.51 108.96"/>
    <polygon class="cls-1" points="377.51 0.5 377.51 76.04 453.04 76.04 453.04 0.5 377.51 0.5 377.51 0.5"/>
    <polygon class="cls-2" points="377.51 0.5 377.51 76.04 453.04 76.04 453.04 0.5 377.51 0.5 377.51 0.5"/>
    <polygon class="cls-1"
             points="377.51 542.79 377.51 618.33 453.04 618.33 453.04 542.79 377.51 542.79 377.51 542.79"/>
    <polygon class="cls-2"
             points="377.51 542.79 377.51 618.33 453.04 618.33 453.04 542.79 377.51 542.79 377.51 542.79"/>
    <polygon class="cls-1"
             points="377.51 651.25 377.51 726.79 453.04 726.79 453.04 651.25 377.51 651.25 377.51 651.25"/>
    <polygon class="cls-2"
             points="377.51 651.25 377.51 726.79 453.04 726.79 453.04 651.25 377.51 651.25 377.51 651.25"/>
    <polygon class="cls-1"
             points="377.51 217.42 377.51 292.95 453.04 292.95 453.04 217.42 377.51 217.42 377.51 217.42"/>
    <polygon class="cls-2"
             points="377.51 217.42 377.51 292.95 453.04 292.95 453.04 217.42 377.51 217.42 377.51 217.42"/>
    <polygon class="cls-1"
             points="377.51 325.88 377.51 401.41 453.04 401.41 453.04 325.88 377.51 325.88 377.51 325.88"/>
    <polygon class="cls-2"
             points="377.51 325.88 377.51 401.41 453.04 401.41 453.04 325.88 377.51 325.88 377.51 325.88"/>
    <polygon class="cls-1"
             points="377.51 434.33 377.51 509.87 453.04 509.87 453.04 434.33 377.51 434.33 377.51 434.33"/>
    <polygon class="cls-2"
             points="377.51 434.33 377.51 509.87 453.04 509.87 453.04 434.33 377.51 434.33 377.51 434.33"/>
    <line class="cls-19" x1="399.45" y1="494.05" x2="448.06" y2="494.05"/>
    <line class="cls-20" x1="383.29" y1="494.05" x2="404.62" y2="494.05"/>
    <path class="cls-21" d="M458,546.18c3,0,5.35-2.68,5.35-6s-2.39-6-5.35-6-5.34,2.68-5.34,6,2.39,6,5.34,6Z"
          transform="translate(-71 -57.89)"/>
    <path class="cls-21"
          d="M493.5,546.18c4.38,0,7.92-4,7.92-8.88s-3.54-8.87-7.92-8.87-7.93,4-7.93,8.87,3.55,8.88,7.93,8.88Z"
          transform="translate(-71 -57.89)"/>
    <path class="cls-21"
          d="M479.15,546.18c5.32,0,9.64-4.84,9.64-10.8s-4.32-10.8-9.64-10.8-9.65,4.83-9.65,10.8,4.32,10.8,9.65,10.8Z"
          transform="translate(-71 -57.89)"/>
    <path class="cls-21" d="M469.59,546.18c5.52,0,10-5,10-11.2s-4.47-11.19-10-11.19-10,5-10,11.19,4.48,11.2,10,11.2Z"
          transform="translate(-71 -57.89)"/>
    <path class="cls-21" d="M477.62,528.43c5.52,0,10-5,10-11.2s-4.47-11.19-10-11.19-10,5-10,11.19,4.48,11.2,10,11.2Z"
          transform="translate(-71 -57.89)"/>
    <path class="cls-21"
          d="M508.49,546.18c6.8,0,12.31-6.18,12.31-13.79s-5.51-13.79-12.31-13.79-12.32,6.17-12.32,13.79,5.51,13.79,12.32,13.79Z"
          transform="translate(-71 -57.89)"/>
    <path class="cls-21"
          d="M491.74,539.46c6.8,0,12.31-6.17,12.31-13.79s-5.51-13.79-12.31-13.79-12.32,6.17-12.32,13.79,5.52,13.79,12.32,13.79Z"
          transform="translate(-71 -57.89)"/>
    <line class="cls-8" x1="385.02" y1="263.55" x2="391.87" y2="267.94"/>
    <path class="cls-21" d="M515.13,323.32a5.67,5.67,0,1,0-5.67-5.67,5.67,5.67,0,0,0,5.67,5.67Z"
          transform="translate(-71 -57.89)"/>
    <path class="cls-21" d="M503.94,346.61a8.51,8.51,0,1,0-8.5-8.51,8.51,8.51,0,0,0,8.5,8.51Z"
          transform="translate(-71 -57.89)"/>
    <line class="cls-22" x1="388.91" y1="246.93" x2="395.76" y2="251.32"/>
    <path class="cls-23" d="M474.45,313.56l21.71,13.32m-3.07-19.29L505,315" transform="translate(-71 -57.89)"/>
    <line class="cls-8" x1="433.75" y1="247.98" x2="434.92" y2="248.95"/>
    <path class="cls-23" d="M497.32,318.66l18.57,11.44m-38.18-6,10.07,6.33" transform="translate(-71 -57.89)"/>
    <path class="cls-22" d="M475.62,288.37l22.58,13.84m-45,8.4,18.21,10.06m-17.09-36.35,32.09,19.55"
          transform="translate(-71 -57.89)"/>
    <line class="cls-8" x1="387.1" y1="237.22" x2="419.19" y2="256.77"/>
    <line class="cls-22" x1="401.28" y1="271.94" x2="417.16" y2="281.75"/>
    <line class="cls-24" x1="430.43" y1="718.97" x2="444.93" y2="716.41"/>
    <line class="cls-19" x1="404.52" y1="671.68" x2="404.52" y2="709.41"/>
    <line class="cls-25" x1="434.16" y1="716.7" x2="448.24" y2="721"/>
    <line class="cls-26" x1="433.48" y1="685.06" x2="433.48" y2="696.23"/>
    <path class="cls-19" d="M468.62,761.94v5.19m21.51-5.19v5.19" transform="translate(-71 -57.89)"/>
    <path class="cls-26" d="M497.43,744.94V767.3m-38.17-10.43V767.3" transform="translate(-71 -57.89)"/>
    <line class="cls-19" x1="412.29" y1="693.6" x2="412.29" y2="709.41"/>
    <line class="cls-27" x1="381.85" y1="721.37" x2="395.69" y2="716.33"/>
    <line class="cls-27" x1="404.52" y1="715.29" x2="418.45" y2="720.08"/>
    <line class="cls-20" x1="416.75" y1="716.83" x2="431.48" y2="716.83"/>
    <line class="cls-27" x1="392.37" y1="721.39" x2="406.87" y2="718.83"/>
    <path class="cls-21" d="M482.77,746.8A10.77,10.77,0,1,0,472,736a10.77,10.77,0,0,0,10.77,10.77Z"
          transform="translate(-71 -57.89)"/>
    <path class="cls-21" d="M472.64,738.86a13.16,13.16,0,1,0-13.16-13.16,13.17,13.17,0,0,0,13.16,13.16Z"
          transform="translate(-71 -57.89)"/>
    <path class="cls-28" d="M459.26,752.69a7.72,7.72,0,1,0-7.71-7.72,7.72,7.72,0,0,0,7.71,7.72Z"
          transform="translate(-71 -57.89)"/>
    <path class="cls-28" d="M503.8,739.52a7.72,7.72,0,1,0-7.71-7.72,7.72,7.72,0,0,0,7.71,7.72Z"
          transform="translate(-71 -57.89)"/>
    <path class="cls-29"
          d="M514,769.51c4.28,0,7.75-3.18,7.75-7.09s-3.47-7.09-7.75-7.09-7.75,3.18-7.75,7.09,3.47,7.09,7.75,7.09Z"
          transform="translate(-71 -57.89)"/>
    <path class="cls-19" d="M457.87,198.45H464m-5.35,7.37h2.29m4,7.37h4.36m-9.55,7.26h.73m-3.72,7.48h1m4.26,0h32.7"
          transform="translate(-71 -57.89)"/>
    <path class="cls-20" d="M465.73,220.56h15.69m-6.56-7.37h41m-49.44-7.37h32.69" transform="translate(-71 -57.89)"/>
    <line class="cls-19" x1="416.28" y1="162.81" x2="437.06" y2="162.81"/>
    <path class="cls-21" d="M481,201.44a11.34,11.34,0,1,0-11.34-11.34A11.34,11.34,0,0,0,481,201.44Z"
          transform="translate(-71 -57.89)"/>
    <path class="cls-21"
          d="M505.35,200.9c4.7,0,8.5-3.17,8.5-7.09s-3.8-7.08-8.5-7.08-8.5,3.17-8.5,7.08,3.8,7.09,8.5,7.09Z"
          transform="translate(-71 -57.89)"/>
    <line class="cls-19" x1="421.02" y1="576.33" x2="421.02" y2="603.61"/>
    <path class="cls-26" d="M459.56,646.78V661.5m21.19-15.81V661.5" transform="translate(-71 -57.89)"/>
    <line class="cls-19" x1="385.72" y1="611.38" x2="442.02" y2="611.38"/>
    <path class="cls-28" d="M480.23,641a6,6,0,1,0-6-6,6,6,0,0,0,6,6Z" transform="translate(-71 -57.89)"/>
    <path class="cls-21" d="M470.11,626.68a6,6,0,1,0-6-6,6,6,0,0,0,6,6Z" transform="translate(-71 -57.89)"/>
    <path class="cls-28" d="M459.56,642.63a6,6,0,1,0-6-6,6,6,0,0,0,6,6Z" transform="translate(-71 -57.89)"/>
    <path class="cls-29" d="M501.9,662.29a6,6,0,1,0-6-6,6,6,0,0,0,6,6Z" transform="translate(-71 -57.89)"/>
    <path class="cls-21" d="M492.54,629.39a11.88,11.88,0,1,0-11.87-11.88,11.88,11.88,0,0,0,11.87,11.88Z"
          transform="translate(-71 -57.89)"/>
    <line class="cls-26" x1="441.54" y1="582.56" x2="441.54" y2="603.61"/>
    <line class="cls-19" x1="399.15" y1="573.14" x2="399.15" y2="603.61"/>
    <path class="cls-28" d="M512,635.55a7,7,0,1,0-7-7,7,7,0,0,0,7,7Z" transform="translate(-71 -57.89)"/>
    <path class="cls-28" d="M512,625.06a5.67,5.67,0,1,0-5.67-5.67,5.67,5.67,0,0,0,5.67,5.67Z"
          transform="translate(-71 -57.89)"/>
    <path class="cls-28" d="M512,615.34a4.26,4.26,0,1,0-4.25-4.25,4.25,4.25,0,0,0,4.25,4.25Z"
          transform="translate(-71 -57.89)"/>
    <path class="cls-26" d="M496.59,90v13.55M485.79,90v13.55m-10.8-10v10" transform="translate(-71 -57.89)"/>
    <line class="cls-19" x1="384.3" y1="53.4" x2="431.1" y2="53.4"/>
    <path class="cls-20" d="M510.92,111.29h6.33m-56.06,8.41h6.33" transform="translate(-71 -57.89)"/>
    <path class="cls-19" d="M475.62,119.7h34m-41.6,8.41h34" transform="translate(-71 -57.89)"/>
    <path class="cls-28" d="M462.84,104.31a6,6,0,1,0-6-6,6,6,0,0,0,6,6Z" transform="translate(-71 -57.89)"/>
    <path class="cls-21" d="M496.66,83.8A10.8,10.8,0,1,0,485.86,73a10.8,10.8,0,0,0,10.8,10.8Z"
          transform="translate(-71 -57.89)"/>
    <path class="cls-28" d="M474.07,88c3.85,0,7-2.77,7-6.19s-3.12-6.19-7-6.19-7,2.77-7,6.19,3.12,6.19,7,6.19Z"
          transform="translate(-71 -57.89)"/>
    <path class="cls-28" d="M474.07,78.66c3.13,0,5.67-2.26,5.67-5s-2.54-5-5.67-5-5.67,2.26-5.67,5,2.54,5,5.67,5Z"
          transform="translate(-71 -57.89)"/>
    <path class="cls-28" d="M474.07,70a3.81,3.81,0,1,0-4.25-3.78A4,4,0,0,0,474.07,70Z"
          transform="translate(-71 -57.89)"/>
    <path class="cls-26" d="M488.39,417.56v24.36m-8.67-22.36v22.36m-10.09-15.81v15.81"
          transform="translate(-71 -57.89)"/>
    <line class="cls-19" x1="383.93" y1="391.79" x2="425.74" y2="391.79"/>
    <line class="cls-20" x1="434.56" y1="391.79" x2="448.06" y2="391.79"/>
    <path class="cls-30" d="M457.48,442.7a6,6,0,1,0-6-6,6,6,0,0,0,6,6Z" transform="translate(-71 -57.89)"/>
    <path class="cls-21" d="M489.17,413a10.8,10.8,0,1,0-10.8-10.8,10.8,10.8,0,0,0,10.8,10.8Z"
          transform="translate(-71 -57.89)"/>
    <path class="cls-18"
          d="M497.18,422.25a2.83,2.83,0,0,0-2.83,2.83v3.65a2.83,2.83,0,0,0,2.83,2.84h10.57a2.84,2.84,0,0,0,2.84-2.84v-3.65a2.84,2.84,0,0,0-2.84-2.83Z"
          transform="translate(-71 -57.89)"/>
    <path class="cls-18"
          d="M515.34,422.25a2.83,2.83,0,0,0-2.83,2.83v3.65a2.84,2.84,0,0,0,2.83,2.84h2.88a2.84,2.84,0,0,0,2.84-2.84v-3.65a2.84,2.84,0,0,0-2.84-2.83Z"
          transform="translate(-71 -57.89)"/>
    <path class="cls-18"
          d="M518.22,433.88a2.84,2.84,0,0,1,2.84,2.83v3.65a2.84,2.84,0,0,1-2.84,2.84H507.65a2.84,2.84,0,0,1-2.83-2.84v-3.65a2.83,2.83,0,0,1,2.83-2.83Z"
          transform="translate(-71 -57.89)"/>
    <path class="cls-18"
          d="M500.06,433.88a2.83,2.83,0,0,1,2.83,2.83v3.65a2.84,2.84,0,0,1-2.83,2.84h-2.88a2.83,2.83,0,0,1-2.83-2.84v-3.65a2.83,2.83,0,0,1,2.83-2.83Z"
          transform="translate(-71 -57.89)"/>
    <path class="cls-28" d="M469.42,421.54a7,7,0,1,0-7-7,7,7,0,0,0,7,7Z" transform="translate(-71 -57.89)"/>
    <path class="cls-28" d="M469.42,411.05a5.67,5.67,0,1,0-5.67-5.67,5.67,5.67,0,0,0,5.67,5.67Z"
          transform="translate(-71 -57.89)"/>
    <path class="cls-28" d="M469.42,401.33a4.26,4.26,0,1,0-4.25-4.25,4.25,4.25,0,0,0,4.25,4.25Z"
          transform="translate(-71 -57.89)"/>
</svg>