<svg id="Ebene_1" data-name="Ebene 1" xmlns="http://www.w3.org/2000/svg" viewBox="0 0 453.54 727.29">
    <defs>
        <style>
            .cls-1{fill:#fff;}.cls-10,.cls-12,.cls-13,.cls-15,.cls-17,.cls-18,.cls-19,.cls-2,.cls-20,.cls-21,.cls-22,.cls-23,.cls-24,.cls-26,.cls-28,.cls-30,.cls-31,.cls-33,.cls-35,.cls-36,.cls-37,.cls-38,.cls-39,.cls-4,.cls-5,.cls-6,.cls-8{fill:none;}.cls-2,.cls-26,.cls-38{stroke:#c6c6c6;}.cls-3{font-size:12px;fill:#575756;font-family:MyriadPro-Semibold,
            Myriad
            Pro;font-weight:600;}.cls-4{stroke:#575756;stroke-width:0.5px;}.cls-12,.cls-22,.cls-5{stroke:#98bc1f;}.cls-10,.cls-13,.cls-15,.cls-18,.cls-19,.cls-21,.cls-23,.cls-24,.cls-26,.cls-28,.cls-31,.cls-33,.cls-36,.cls-37,.cls-38,.cls-5,.cls-6,.cls-8{stroke-linecap:round;}.cls-10,.cls-15,.cls-18,.cls-19,.cls-23,.cls-24,.cls-26,.cls-28,.cls-33,.cls-36,.cls-37,.cls-5,.cls-6,.cls-8{stroke-linejoin:round;}.cls-13,.cls-19,.cls-21,.cls-23,.cls-24,.cls-26,.cls-31,.cls-37,.cls-38,.cls-5,.cls-6,.cls-8{stroke-width:4px;}.cls-10,.cls-13,.cls-6{stroke:#b15922;}.cls-7{fill:#fab200;}.cls-21,.cls-8{stroke:#009fe3;}.cls-9{fill:#009fe3;}.cls-10,.cls-28{stroke-width:14.24px;}.cls-11{fill:#98bc1f;}.cls-12,.cls-30{stroke-width:0.89px;}.cls-14{fill:#b15922;}.cls-15,.cls-17{stroke:#fab200;}.cls-15,.cls-33{stroke-width:4px;}.cls-16{fill:#9f2538;}.cls-17,.cls-35{stroke-width:3px;}.cls-18,.cls-19{stroke:#9f2538;}.cls-18,.cls-36{stroke-width:2px;}.cls-20{stroke:#3fa535;}.cls-22,.cls-39{stroke-width:0.67px;}.cls-23,.cls-30,.cls-39{stroke:#9d9d9c;}.cls-24,.cls-28,.cls-31{stroke:#706f6f;}.cls-25{fill:#e3e3e3;}.cls-27{fill:#c6c6c6;}.cls-29{fill:#9d9d9c;}.cls-32{fill:#706f6f;}.cls-33,.cls-35{stroke:#e3e3e3;}.cls-34{fill:#3c3c3b;}.cls-36,.cls-37{stroke:#3c3c3b;}
        </style>
    </defs>
    <title>OESL Icons_quadrat_1</title>
    <polygon class="cls-1"
             points="218.64 108.96 218.64 184.49 294.18 184.49 294.18 108.96 218.64 108.96 218.64 108.96"/>
    <polygon class="cls-2"
             points="218.64 108.96 218.64 184.49 294.18 184.49 294.18 108.96 218.64 108.96 218.64 108.96"/>
    <polygon class="cls-1" points="218.64 0.5 218.64 76.04 294.18 76.04 294.18 0.5 218.64 0.5 218.64 0.5"/>
    <polygon class="cls-2" points="218.64 0.5 218.64 76.04 294.18 76.04 294.18 0.5 218.64 0.5 218.64 0.5"/>
    <polygon class="cls-1"
             points="218.64 542.79 218.64 618.33 294.18 618.33 294.18 542.79 218.64 542.79 218.64 542.79"/>
    <polygon class="cls-2"
             points="218.64 542.79 218.64 618.33 294.18 618.33 294.18 542.79 218.64 542.79 218.64 542.79"/>
    <polygon class="cls-1"
             points="218.64 651.25 218.64 726.79 294.18 726.79 294.18 651.25 218.64 651.25 218.64 651.25"/>
    <polygon class="cls-2"
             points="218.64 651.25 218.64 726.79 294.18 726.79 294.18 651.25 218.64 651.25 218.64 651.25"/>
    <polygon class="cls-1"
             points="218.64 217.42 218.64 292.95 294.18 292.95 294.18 217.42 218.64 217.42 218.64 217.42"/>
    <polygon class="cls-2"
             points="218.64 217.42 218.64 292.95 294.18 292.95 294.18 217.42 218.64 217.42 218.64 217.42"/>
    <polygon class="cls-1"
             points="218.64 325.88 218.64 401.41 294.18 401.41 294.18 325.88 218.64 325.88 218.64 325.88"/>
    <polygon class="cls-2"
             points="218.64 325.88 218.64 401.41 294.18 401.41 294.18 325.88 218.64 325.88 218.64 325.88"/>
    <polygon class="cls-1"
             points="218.64 434.33 218.64 509.87 294.18 509.87 294.18 434.33 218.64 434.33 218.64 434.33"/>
    <polygon class="cls-2"
             points="218.64 434.33 218.64 509.87 294.18 509.87 294.18 434.33 218.64 434.33 218.64 434.33"/>
    <path class="cls-1"
          d="M76.92,85.49a5.67,5.67,0,0,0-5.67,5.67v10a5.67,5.67,0,0,0,5.67,5.67h27.85a5.66,5.66,0,0,0,5.66-5.67v-10a5.66,5.66,0,0,0-5.66-5.67Z"
          transform="translate(-71 -57.89)"/>
    <text class="cls-3" transform="translate(13.02 42.76)">V1</text>
    <path class="cls-4"
          d="M76.92,85.49a5.67,5.67,0,0,0-5.67,5.67v10a5.67,5.67,0,0,0,5.67,5.67h27.85a5.66,5.66,0,0,0,5.66-5.67v-10a5.66,5.66,0,0,0-5.66-5.67Z"
          transform="translate(-71 -57.89)"/>
    <path class="cls-1"
          d="M76.92,194a5.67,5.67,0,0,0-5.67,5.67v10a5.67,5.67,0,0,0,5.67,5.67h27.85a5.66,5.66,0,0,0,5.66-5.67v-10a5.66,5.66,0,0,0-5.66-5.67Z"
          transform="translate(-71 -57.89)"/>
    <text class="cls-3" transform="translate(13.02 151.22)">V5</text>
    <path class="cls-4"
          d="M76.92,194a5.67,5.67,0,0,0-5.67,5.67v10a5.67,5.67,0,0,0,5.67,5.67h27.85a5.66,5.66,0,0,0,5.66-5.67v-10a5.66,5.66,0,0,0-5.66-5.67Z"
          transform="translate(-71 -57.89)"/>
    <path class="cls-1"
          d="M76.92,302.41a5.66,5.66,0,0,0-5.67,5.66v10a5.67,5.67,0,0,0,5.67,5.67h27.85a5.66,5.66,0,0,0,5.66-5.67v-10a5.65,5.65,0,0,0-5.66-5.66Z"
          transform="translate(-71 -57.89)"/>
    <text class="cls-3" transform="translate(13.02 259.69)">V2</text>
    <path class="cls-4"
          d="M76.92,302.41a5.66,5.66,0,0,0-5.67,5.66v10a5.67,5.67,0,0,0,5.67,5.67h27.85a5.66,5.66,0,0,0,5.66-5.67v-10a5.65,5.65,0,0,0-5.66-5.66Z"
          transform="translate(-71 -57.89)"/>
    <path class="cls-1"
          d="M76.92,410.86a5.67,5.67,0,0,0-5.67,5.67v10a5.67,5.67,0,0,0,5.67,5.67h27.85a5.66,5.66,0,0,0,5.66-5.67v-10a5.66,5.66,0,0,0-5.66-5.67Z"
          transform="translate(-71 -57.89)"/>
    <text class="cls-3" transform="translate(13.51 368.14)">S2</text>
    <path class="cls-4"
          d="M76.92,410.86a5.67,5.67,0,0,0-5.67,5.67v10a5.67,5.67,0,0,0,5.67,5.67h27.85a5.66,5.66,0,0,0,5.66-5.67v-10a5.66,5.66,0,0,0-5.66-5.67Z"
          transform="translate(-71 -57.89)"/>
    <path class="cls-1"
          d="M76.92,519.32A5.67,5.67,0,0,0,71.25,525v10a5.67,5.67,0,0,0,5.67,5.67h27.85a5.66,5.66,0,0,0,5.66-5.67V525a5.66,5.66,0,0,0-5.66-5.67Z"
          transform="translate(-71 -57.89)"/>
    <text class="cls-3" transform="translate(13.51 476.61)">S4</text>
    <path class="cls-4"
          d="M76.92,519.32A5.67,5.67,0,0,0,71.25,525v10a5.67,5.67,0,0,0,5.67,5.67h27.85a5.66,5.66,0,0,0,5.66-5.67V525a5.66,5.66,0,0,0-5.66-5.67Z"
          transform="translate(-71 -57.89)"/>
    <path class="cls-1"
          d="M76.92,627.78a5.67,5.67,0,0,0-5.67,5.67v10a5.67,5.67,0,0,0,5.67,5.67h27.85a5.66,5.66,0,0,0,5.66-5.67v-10a5.66,5.66,0,0,0-5.66-5.67Z"
          transform="translate(-71 -57.89)"/>
    <text class="cls-3" transform="translate(13.51 585.06)">S5</text>
    <path class="cls-4"
          d="M76.92,627.78a5.67,5.67,0,0,0-5.67,5.67v10a5.67,5.67,0,0,0,5.67,5.67h27.85a5.66,5.66,0,0,0,5.66-5.67v-10a5.66,5.66,0,0,0-5.66-5.67Z"
          transform="translate(-71 -57.89)"/>
    <path class="cls-1"
          d="M76.92,736.24a5.67,5.67,0,0,0-5.67,5.67v10a5.67,5.67,0,0,0,5.67,5.67h27.85a5.66,5.66,0,0,0,5.66-5.67v-10a5.66,5.66,0,0,0-5.66-5.67Z"
          transform="translate(-71 -57.89)"/>
    <text class="cls-3" transform="translate(13.51 693.52)">S8</text>
    <path class="cls-4"
          d="M76.92,736.24a5.67,5.67,0,0,0-5.67,5.67v10a5.67,5.67,0,0,0,5.67,5.67h27.85a5.66,5.66,0,0,0,5.66-5.67v-10a5.66,5.66,0,0,0-5.66-5.67Z"
          transform="translate(-71 -57.89)"/>
    <path class="cls-5" d="M341.55,90.93v24.35m-10.8-18.63v18.63M320,102.74v12.54m-10.8-18.63v18.63"
          transform="translate(-71 -57.89)"/>
    <path class="cls-6" d="M300.26,121.92h46.81m-26.48,7h34" transform="translate(-71 -57.89)"/>
    <path class="cls-7" d="M309.32,92.46c3.85,0,7-2.77,7-6.19s-3.12-6.19-7-6.19-7,2.77-7,6.19,3.12,6.19,7,6.19Z"
          transform="translate(-71 -57.89)"/>
    <path class="cls-7" d="M309.32,83.14c3.13,0,5.67-2.25,5.67-5s-2.54-5-5.67-5-5.67,2.25-5.67,5,2.54,5,5.67,5Z"
          transform="translate(-71 -57.89)"/>
    <path class="cls-7" d="M309.32,74.5a3.8,3.8,0,1,0-4.25-3.77,4,4,0,0,0,4.25,3.77Z"
          transform="translate(-71 -57.89)"/>
    <path class="cls-7" d="M320,98.33c3.85,0,7-2.77,7-6.19S323.8,86,320,86s-7,2.77-7,6.19,3.12,6.19,7,6.19Z"
          transform="translate(-71 -57.89)"/>
    <path class="cls-7" d="M320,89c3.13,0,5.67-2.25,5.67-5s-2.54-5-5.67-5-5.67,2.25-5.67,5,2.54,5,5.67,5Z"
          transform="translate(-71 -57.89)"/>
    <path class="cls-7" d="M320,80.37a3.8,3.8,0,1,0-4.25-3.77A4,4,0,0,0,320,80.37Z" transform="translate(-71 -57.89)"/>
    <path class="cls-7" d="M330.63,92.32c3.85,0,7-2.77,7-6.19s-3.12-6.19-7-6.19-7,2.77-7,6.19,3.12,6.19,7,6.19Z"
          transform="translate(-71 -57.89)"/>
    <path class="cls-7" d="M330.63,83c3.13,0,5.67-2.26,5.67-5s-2.54-5-5.67-5S325,75.18,325,78s2.54,5,5.67,5Z"
          transform="translate(-71 -57.89)"/>
    <path class="cls-7" d="M330.63,74.36a3.8,3.8,0,1,0-4.25-3.78,4,4,0,0,0,4.25,3.78Z"
          transform="translate(-71 -57.89)"/>
    <path class="cls-7" d="M341.55,86.91c3.85,0,7-2.77,7-6.19s-3.12-6.19-7-6.19-7,2.77-7,6.19,3.12,6.19,7,6.19Z"
          transform="translate(-71 -57.89)"/>
    <path class="cls-7" d="M341.55,77.59c3.13,0,5.67-2.25,5.67-5s-2.54-5-5.67-5-5.67,2.25-5.67,5,2.54,5,5.67,5Z"
          transform="translate(-71 -57.89)"/>
    <path class="cls-7" d="M341.55,69a3.8,3.8,0,1,0-4.25-3.77A4,4,0,0,0,341.55,69Z" transform="translate(-71 -57.89)"/>
    <path class="cls-8" d="M307.22,228.89H346.8m-50.92-6.8h45.57m-40.61-7.24h57" transform="translate(-71 -57.89)"/>
    <path class="cls-9" d="M326.65,207.77a8,8,0,0,0,8-8c0-4.41-8-21.44-8-21.44s-8,17-8,21.44a8,8,0,0,0,8,8Z"
          transform="translate(-71 -57.89)"/>
    <line class="cls-10" x1="255.01" y1="260.45" x2="255.01" y2="282.51"/>
    <path class="cls-11" d="M309.43,314.81a9.46,9.46,0,1,0-9.46-9.46,9.46,9.46,0,0,0,9.46,9.46Z"
          transform="translate(-71 -57.89)"/>
    <path class="cls-12" d="M309.43,314.81a9.46,9.46,0,1,0-9.46-9.46,9.46,9.46,0,0,0,9.46,9.46Z"
          transform="translate(-71 -57.89)"/>
    <path class="cls-11" d="M318.89,300.61a9.46,9.46,0,1,0-9.46-9.46,9.46,9.46,0,0,0,9.46,9.46Z"
          transform="translate(-71 -57.89)"/>
    <path class="cls-12" d="M318.89,300.61a9.46,9.46,0,1,0-9.46-9.46,9.46,9.46,0,0,0,9.46,9.46Z"
          transform="translate(-71 -57.89)"/>
    <path class="cls-11" d="M333.58,298a9.46,9.46,0,1,0-9.46-9.46,9.45,9.45,0,0,0,9.46,9.46Z"
          transform="translate(-71 -57.89)"/>
    <path class="cls-12" d="M333.58,298a9.46,9.46,0,1,0-9.46-9.46,9.45,9.45,0,0,0,9.46,9.46Z"
          transform="translate(-71 -57.89)"/>
    <path class="cls-11" d="M344.94,304.45a9.46,9.46,0,1,0-9.47-9.46,9.46,9.46,0,0,0,9.47,9.46Z"
          transform="translate(-71 -57.89)"/>
    <path class="cls-12" d="M344.94,304.45a9.46,9.46,0,1,0-9.47-9.46,9.46,9.46,0,0,0,9.47,9.46Z"
          transform="translate(-71 -57.89)"/>
    <path class="cls-11" d="M342.59,316.91a9.46,9.46,0,1,0-9.46-9.46,9.46,9.46,0,0,0,9.46,9.46Z"
          transform="translate(-71 -57.89)"/>
    <path class="cls-12" d="M342.59,316.91a9.46,9.46,0,1,0-9.46-9.46,9.46,9.46,0,0,0,9.46,9.46Z"
          transform="translate(-71 -57.89)"/>
    <path class="cls-11" d="M326,308.46a9.46,9.46,0,1,0-9.46-9.46,9.45,9.45,0,0,0,9.46,9.46Z"
          transform="translate(-71 -57.89)"/>
    <path class="cls-12" d="M326,308.46a9.46,9.46,0,1,0-9.46-9.46,9.45,9.45,0,0,0,9.46,9.46Z"
          transform="translate(-71 -57.89)"/>
    <path class="cls-8" d="M319.05,534.83h16.71M312.47,528h29.87m-38.82-7.25H351.3" transform="translate(-71 -57.89)"/>
    <path class="cls-13" d="M295,523.6s9.73,19.85,32.05,19.85,32.77-19.85,32.77-19.85"
          transform="translate(-71 -57.89)"/>
    <line class="cls-6" x1="231.74" y1="704.05" x2="281.08" y2="704.05"/>
    <line class="cls-8" x1="231.74" y1="673.99" x2="281.08" y2="673.99"/>
    <path class="cls-14"
          d="M303.31,740a9.16,9.16,0,0,0-2.47,6.68,9.67,9.67,0,0,0,2.44,6.81,8.16,8.16,0,0,0,6.31,2.65q4.14,0,6.24-2.25a3.74,3.74,0,0,0,1.25-2.27,2,2,0,0,0-.55-1.49,1.94,1.94,0,0,0-1.44-.56,1.83,1.83,0,0,0-1.37.83,18.45,18.45,0,0,1-1.32,1.57,3.66,3.66,0,0,1-2.46.85,4.33,4.33,0,0,1-3.47-1.57,5.81,5.81,0,0,1-1.32-3.94q0-6.57,4.73-6.57a3.7,3.7,0,0,1,2.27.68l1.31,1.25a2.08,2.08,0,0,0,1.5.68,1.57,1.57,0,0,0,1.21-.54,1.93,1.93,0,0,0,.49-1.31q0-1.87-2.58-3.06a10,10,0,0,0-4.24-1,8.72,8.72,0,0,0-6.53,2.54Z"
          transform="translate(-71 -57.89)"/>
    <path class="cls-9"
          d="M338.07,746.85a9.48,9.48,0,0,0-2.42-6.82,9.52,9.52,0,0,0-12.94,0,9.23,9.23,0,0,0-2.42,6.68,9.65,9.65,0,0,0,2.42,6.85,8.29,8.29,0,0,0,6.39,2.61,8.56,8.56,0,0,0,6.47-2.59,9.19,9.19,0,0,0,2.5-6.68Zm-4.22,0a6.81,6.81,0,0,1-1.25,4.28,4.45,4.45,0,0,1-6.82,0,6.84,6.84,0,0,1-1.24-4.29,7.42,7.42,0,0,1,1.1-4.09,4,4,0,0,1,3.56-2,4,4,0,0,1,3.57,2,7.38,7.38,0,0,1,1.08,4.11Z"
          transform="translate(-71 -57.89)"/>
    <path class="cls-11"
          d="M348,747.6,344.05,751c-1.42,1.2-2.13,2.16-2.13,2.87,0,1.31.71,2,2.13,2h8.11a1.94,1.94,0,0,0,1.32-.43,1.52,1.52,0,0,0,.5-1.18,1.38,1.38,0,0,0-.55-1.13,2.08,2.08,0,0,0-1.35-.43h-5.17c1.1-.89,2-1.67,2.79-2.33a15,15,0,0,0,2.87-3.12,7.58,7.58,0,0,0,1.13-4,4.89,4.89,0,0,0-1.54-3.77,6.37,6.37,0,0,0-9,1,4.67,4.67,0,0,0-.95,2.55,1.52,1.52,0,0,0,.52,1.16,1.67,1.67,0,0,0,1.21.49,1.51,1.51,0,0,0,1.35-.86l.9-1.6a2.25,2.25,0,0,1,1.89-.86,1.88,1.88,0,0,1,1.52.65,2.59,2.59,0,0,1,.55,1.75q0,1.83-2.12,4Z"
          transform="translate(-71 -57.89)"/>
    <path class="cls-9" d="M314.5,657.13a6.61,6.61,0,1,0-8-4.81,6.6,6.6,0,0,0,8,4.81Z"
          transform="translate(-71 -57.89)"/>
    <path class="cls-9" d="M328.21,669.84a6.61,6.61,0,1,0-8-4.81,6.6,6.6,0,0,0,8,4.81Z"
          transform="translate(-71 -57.89)"/>
    <line class="cls-15" x1="265.3" y1="585.29" x2="257" y2="591.14"/>
    <path class="cls-7" d="M327.21,656.1a5.67,5.67,0,1,0-6.86-4.13,5.67,5.67,0,0,0,6.86,4.13Z"
          transform="translate(-71 -57.89)"/>
    <path class="cls-7" d="M320.37,663.1A5.66,5.66,0,1,0,313.5,659a5.66,5.66,0,0,0,6.87,4.12Z"
          transform="translate(-71 -57.89)"/>
    <path class="cls-7" d="M313.81,668.63a4.72,4.72,0,1,0-5.72-3.44,4.72,4.72,0,0,0,5.72,3.44Z"
          transform="translate(-71 -57.89)"/>
    <line class="cls-5" x1="277.8" y1="579.8" x2="277.8" y2="610.15"/>
    <path class="cls-7" d="M348.61,633.46A11.46,11.46,0,1,0,337.15,622a11.46,11.46,0,0,0,11.46,11.46Z"
          transform="translate(-71 -57.89)"/>
    <path class="cls-16"
          d="M301.08,619.28a5.8,5.8,0,0,1,4.19-2.94A6.83,6.83,0,1,1,318,618.47c-1.24,2.29-4.31,4.34-4.8,5.24-3.6,2.35-7,5-9.79,3.44a5.8,5.8,0,0,1-2.34-7.87Z"
          transform="translate(-71 -57.89)"/>
    <path class="cls-17"
          d="M301.08,619.28a5.8,5.8,0,0,1,4.19-2.94A6.83,6.83,0,1,1,318,618.47c-1.24,2.29-4.31,4.34-4.8,5.24-3.6,2.35-7,5-9.79,3.44a5.8,5.8,0,0,1-2.34-7.87Z"
          transform="translate(-71 -57.89)"/>
    <path class="cls-16"
          d="M306.15,628.15c1.46-2.69,11.31-7.7,16.61-5a6.85,6.85,0,1,1-6.54,12c-.22-.12-.41-.28-.62-.42a5.8,5.8,0,0,1-9.45-6.6Z"
          transform="translate(-71 -57.89)"/>
    <path class="cls-17"
          d="M306.15,628.15c1.46-2.69,11.31-7.7,16.61-5a6.85,6.85,0,1,1-6.54,12c-.22-.12-.41-.28-.62-.42a5.8,5.8,0,0,1-9.45-6.6Z"
          transform="translate(-71 -57.89)"/>
    <path class="cls-18" d="M322.38,617.1l6.85-7.33M323.38,619l9.9-1.46" transform="translate(-71 -57.89)"/>
    <line class="cls-19" x1="230.86" y1="572.29" x2="251.13" y2="560.45"/>
    <path class="cls-20" d="M329,610.18" transform="translate(-71 -57.89)"/>
    <path class="cls-20" d="M295.07,612.51" transform="translate(-71 -57.89)"/>
    <path class="cls-21"
          d="M294.7,419.48h17s9.36,0,9.36-6.89-7.16-7.41-7.71-7.41-7.15,1.59-7.15,6.88m16.3,9.7h24s6.32-1.41,6.32-5.68-4.83-5.3-5.2-5.3-4.84,1-4.84,4.27m-37.5,12.8h16.55s9.35,0,9.35,6.89-7.15,7.41-7.7,7.41-7.16-1.58-7.16-6.88"
          transform="translate(-71 -57.89)"/>
    <path class="cls-14" d="M333.27,411.68a4.25,4.25,0,1,0-4.25-4.25,4.25,4.25,0,0,0,4.25,4.25Z"
          transform="translate(-71 -57.89)"/>
    <path class="cls-14" d="M358,430.86a4.11,4.11,0,1,0-4.11-4.11,4.11,4.11,0,0,0,4.11,4.11Z"
          transform="translate(-71 -57.89)"/>
    <path class="cls-11" d="M350.58,405.11a7.1,7.1,0,1,0-7.1-7.09,7.09,7.09,0,0,0,7.1,7.09Z"
          transform="translate(-71 -57.89)"/>
    <path class="cls-22" d="M350.58,405.11a7.1,7.1,0,1,0-7.1-7.09,7.09,7.09,0,0,0,7.1,7.09Z"
          transform="translate(-71 -57.89)"/>
    <path class="cls-11" d="M346,452a9.46,9.46,0,1,0-9.46-9.46A9.45,9.45,0,0,0,346,452Z"
          transform="translate(-71 -57.89)"/>
    <path class="cls-12" d="M346,452a9.46,9.46,0,1,0-9.46-9.46A9.45,9.45,0,0,0,346,452Z"
          transform="translate(-71 -57.89)"/>
    <path class="cls-14" d="M307.49,442.42a4.11,4.11,0,1,0-4.11-4.11,4.11,4.11,0,0,0,4.11,4.11Z"
          transform="translate(-71 -57.89)"/>
    <polygon class="cls-1"
             points="377.51 108.96 377.51 184.49 453.04 184.49 453.04 108.96 377.51 108.96 377.51 108.96"/>
    <polygon class="cls-2"
             points="377.51 108.96 377.51 184.49 453.04 184.49 453.04 108.96 377.51 108.96 377.51 108.96"/>
    <polygon class="cls-1" points="377.51 0.5 377.51 76.04 453.04 76.04 453.04 0.5 377.51 0.5 377.51 0.5"/>
    <polygon class="cls-2" points="377.51 0.5 377.51 76.04 453.04 76.04 453.04 0.5 377.51 0.5 377.51 0.5"/>
    <polygon class="cls-1"
             points="377.51 542.79 377.51 618.33 453.04 618.33 453.04 542.79 377.51 542.79 377.51 542.79"/>
    <polygon class="cls-2"
             points="377.51 542.79 377.51 618.33 453.04 618.33 453.04 542.79 377.51 542.79 377.51 542.79"/>
    <polygon class="cls-1"
             points="377.51 651.25 377.51 726.79 453.04 726.79 453.04 651.25 377.51 651.25 377.51 651.25"/>
    <polygon class="cls-2"
             points="377.51 651.25 377.51 726.79 453.04 726.79 453.04 651.25 377.51 651.25 377.51 651.25"/>
    <polygon class="cls-1"
             points="377.51 217.42 377.51 292.95 453.04 292.95 453.04 217.42 377.51 217.42 377.51 217.42"/>
    <polygon class="cls-2"
             points="377.51 217.42 377.51 292.95 453.04 292.95 453.04 217.42 377.51 217.42 377.51 217.42"/>
    <polygon class="cls-1"
             points="377.51 325.88 377.51 401.41 453.04 401.41 453.04 325.88 377.51 325.88 377.51 325.88"/>
    <polygon class="cls-2"
             points="377.51 325.88 377.51 401.41 453.04 401.41 453.04 325.88 377.51 325.88 377.51 325.88"/>
    <polygon class="cls-1"
             points="377.51 434.33 377.51 509.87 453.04 509.87 453.04 434.33 377.51 434.33 377.51 434.33"/>
    <polygon class="cls-2"
             points="377.51 434.33 377.51 509.87 453.04 509.87 453.04 434.33 377.51 434.33 377.51 434.33"/>
    <path class="cls-23" d="M500.42,90.93v24.35m-10.8-18.63v18.63m-10.8-12.54v12.54M468,96.65v18.63"
          transform="translate(-71 -57.89)"/>
    <path class="cls-24" d="M459.13,121.92h46.8m-26.48,7h34" transform="translate(-71 -57.89)"/>
    <path class="cls-25" d="M468.19,92.46c3.84,0,7-2.77,7-6.19s-3.12-6.19-7-6.19-7,2.77-7,6.19,3.12,6.19,7,6.19Z"
          transform="translate(-71 -57.89)"/>
    <path class="cls-25" d="M468.19,83.14c3.13,0,5.67-2.25,5.67-5s-2.54-5-5.67-5-5.67,2.25-5.67,5,2.54,5,5.67,5Z"
          transform="translate(-71 -57.89)"/>
    <path class="cls-25" d="M468.19,74.5a3.8,3.8,0,1,0-4.26-3.77,4,4,0,0,0,4.26,3.77Z"
          transform="translate(-71 -57.89)"/>
    <path class="cls-25" d="M478.82,98.33c3.85,0,7-2.77,7-6.19s-3.12-6.19-7-6.19-7,2.77-7,6.19,3.12,6.19,7,6.19Z"
          transform="translate(-71 -57.89)"/>
    <path class="cls-25" d="M478.82,89c3.13,0,5.67-2.25,5.67-5s-2.54-5-5.67-5-5.67,2.25-5.67,5,2.54,5,5.67,5Z"
          transform="translate(-71 -57.89)"/>
    <path class="cls-25" d="M478.82,80.37a3.8,3.8,0,1,0-4.25-3.77,4,4,0,0,0,4.25,3.77Z"
          transform="translate(-71 -57.89)"/>
    <path class="cls-25" d="M489.5,92.32c3.84,0,7-2.77,7-6.19s-3.12-6.19-7-6.19-7,2.77-7,6.19,3.12,6.19,7,6.19Z"
          transform="translate(-71 -57.89)"/>
    <path class="cls-25" d="M489.5,83c3.13,0,5.67-2.26,5.67-5s-2.54-5-5.67-5-5.67,2.25-5.67,5,2.54,5,5.67,5Z"
          transform="translate(-71 -57.89)"/>
    <path class="cls-25" d="M489.5,74.36a3.8,3.8,0,1,0-4.25-3.78,4,4,0,0,0,4.25,3.78Z"
          transform="translate(-71 -57.89)"/>
    <path class="cls-25" d="M500.42,86.91c3.85,0,7-2.77,7-6.19s-3.12-6.19-7-6.19-7,2.77-7,6.19,3.12,6.19,7,6.19Z"
          transform="translate(-71 -57.89)"/>
    <path class="cls-25" d="M500.42,77.59c3.13,0,5.67-2.25,5.67-5s-2.54-5-5.67-5-5.67,2.25-5.67,5,2.54,5,5.67,5Z"
          transform="translate(-71 -57.89)"/>
    <path class="cls-25" d="M500.42,69a3.8,3.8,0,1,0-4.25-3.77A4,4,0,0,0,500.42,69Z" transform="translate(-71 -57.89)"/>
    <path class="cls-26" d="M466.09,228.89h39.57m-50.91-6.8h45.57m-40.61-7.24h57" transform="translate(-71 -57.89)"/>
    <path class="cls-27" d="M485.51,207.77a8,8,0,0,0,8-8c0-4.41-8-21.44-8-21.44s-8,17-8,21.44a8,8,0,0,0,8,8Z"
          transform="translate(-71 -57.89)"/>
    <line class="cls-28" x1="413.88" y1="260.45" x2="413.88" y2="282.51"/>
    <path class="cls-29" d="M468.3,314.81a9.46,9.46,0,1,0-9.46-9.46,9.46,9.46,0,0,0,9.46,9.46Z"
          transform="translate(-71 -57.89)"/>
    <path class="cls-30" d="M468.3,314.81a9.46,9.46,0,1,0-9.46-9.46,9.46,9.46,0,0,0,9.46,9.46Z"
          transform="translate(-71 -57.89)"/>
    <path class="cls-29" d="M477.76,300.61a9.46,9.46,0,1,0-9.46-9.46,9.46,9.46,0,0,0,9.46,9.46Z"
          transform="translate(-71 -57.89)"/>
    <path class="cls-30" d="M477.76,300.61a9.46,9.46,0,1,0-9.46-9.46,9.46,9.46,0,0,0,9.46,9.46Z"
          transform="translate(-71 -57.89)"/>
    <path class="cls-29" d="M492.45,298a9.46,9.46,0,1,0-9.46-9.46,9.46,9.46,0,0,0,9.46,9.46Z"
          transform="translate(-71 -57.89)"/>
    <path class="cls-30" d="M492.45,298a9.46,9.46,0,1,0-9.46-9.46,9.46,9.46,0,0,0,9.46,9.46Z"
          transform="translate(-71 -57.89)"/>
    <path class="cls-29" d="M503.8,304.45a9.46,9.46,0,1,0-9.46-9.46,9.45,9.45,0,0,0,9.46,9.46Z"
          transform="translate(-71 -57.89)"/>
    <path class="cls-30" d="M503.8,304.45a9.46,9.46,0,1,0-9.46-9.46,9.45,9.45,0,0,0,9.46,9.46Z"
          transform="translate(-71 -57.89)"/>
    <path class="cls-29" d="M501.46,316.91a9.46,9.46,0,1,0-9.46-9.46,9.45,9.45,0,0,0,9.46,9.46Z"
          transform="translate(-71 -57.89)"/>
    <path class="cls-30" d="M501.46,316.91a9.46,9.46,0,1,0-9.46-9.46,9.45,9.45,0,0,0,9.46,9.46Z"
          transform="translate(-71 -57.89)"/>
    <path class="cls-29" d="M484.88,308.46a9.46,9.46,0,1,0-9.46-9.46,9.45,9.45,0,0,0,9.46,9.46Z"
          transform="translate(-71 -57.89)"/>
    <path class="cls-30" d="M484.88,308.46a9.46,9.46,0,1,0-9.46-9.46,9.45,9.45,0,0,0,9.46,9.46Z"
          transform="translate(-71 -57.89)"/>
    <path class="cls-26" d="M477.92,534.83h16.71M471.34,528h29.87m-38.83-7.25h47.79" transform="translate(-71 -57.89)"/>
    <path class="cls-31" d="M453.87,523.6s9.73,19.85,32.05,19.85,32.76-19.85,32.76-19.85"
          transform="translate(-71 -57.89)"/>
    <line class="cls-24" x1="390.61" y1="704.05" x2="439.94" y2="704.05"/>
    <line class="cls-26" x1="390.61" y1="673.99" x2="439.94" y2="673.99"/>
    <path class="cls-32"
          d="M462.18,740a9.16,9.16,0,0,0-2.47,6.68,9.71,9.71,0,0,0,2.43,6.81,8.19,8.19,0,0,0,6.32,2.65q4.14,0,6.24-2.25a3.74,3.74,0,0,0,1.25-2.27,2,2,0,0,0-.55-1.49,2,2,0,0,0-1.44-.56,1.83,1.83,0,0,0-1.37.83,18.45,18.45,0,0,1-1.32,1.57,3.68,3.68,0,0,1-2.46.85,4.34,4.34,0,0,1-3.48-1.57,5.86,5.86,0,0,1-1.31-3.94q0-6.57,4.73-6.57a3.7,3.7,0,0,1,2.27.68l1.3,1.25a2.11,2.11,0,0,0,1.5.68,1.58,1.58,0,0,0,1.22-.54,1.93,1.93,0,0,0,.48-1.31c0-1.25-.86-2.27-2.57-3.06a10,10,0,0,0-4.24-1,8.72,8.72,0,0,0-6.53,2.54Z"
          transform="translate(-71 -57.89)"/>
    <path class="cls-27"
          d="M496.94,746.85a9.48,9.48,0,0,0-2.42-6.82,9.54,9.54,0,0,0-12.95,0,9.22,9.22,0,0,0-2.41,6.68,9.64,9.64,0,0,0,2.41,6.85,8.29,8.29,0,0,0,6.39,2.61,8.6,8.6,0,0,0,6.48-2.59,9.19,9.19,0,0,0,2.5-6.68Zm-4.22,0a6.75,6.75,0,0,1-1.26,4.28,4.44,4.44,0,0,1-6.81,0,6.78,6.78,0,0,1-1.24-4.29,7.42,7.42,0,0,1,1.1-4.09,4.22,4.22,0,0,1,7.13,0,7.38,7.38,0,0,1,1.08,4.11Z"
          transform="translate(-71 -57.89)"/>
    <path class="cls-29"
          d="M506.85,747.6,502.92,751c-1.42,1.2-2.13,2.16-2.13,2.87,0,1.31.71,2,2.13,2H511a2,2,0,0,0,1.32-.43,1.52,1.52,0,0,0,.5-1.18,1.41,1.41,0,0,0-.55-1.13,2.09,2.09,0,0,0-1.36-.43h-5.16c1.1-.89,2-1.67,2.79-2.33a14.85,14.85,0,0,0,2.86-3.12,7.5,7.5,0,0,0,1.14-4,4.89,4.89,0,0,0-1.54-3.77,6.37,6.37,0,0,0-9,1,4.67,4.67,0,0,0-.95,2.55,1.54,1.54,0,0,0,.51,1.16,1.71,1.71,0,0,0,1.22.49,1.53,1.53,0,0,0,1.35-.86l.9-1.6a2.25,2.25,0,0,1,1.89-.86,1.89,1.89,0,0,1,1.52.65,2.59,2.59,0,0,1,.55,1.75q0,1.83-2.13,4Z"
          transform="translate(-71 -57.89)"/>
    <path class="cls-27" d="M473.37,657.13a6.61,6.61,0,1,0-8-4.81,6.61,6.61,0,0,0,8,4.81Z"
          transform="translate(-71 -57.89)"/>
    <path class="cls-27" d="M487.08,669.84a6.61,6.61,0,1,0-8-4.81,6.6,6.6,0,0,0,8,4.81Z"
          transform="translate(-71 -57.89)"/>
    <line class="cls-33" x1="424.17" y1="585.29" x2="415.87" y2="591.14"/>
    <path class="cls-25" d="M486.08,656.1a5.67,5.67,0,1,0-6.86-4.13,5.68,5.68,0,0,0,6.86,4.13Z"
          transform="translate(-71 -57.89)"/>
    <path class="cls-25" d="M479.23,663.1a5.66,5.66,0,1,0-6.86-4.12,5.66,5.66,0,0,0,6.86,4.12Z"
          transform="translate(-71 -57.89)"/>
    <path class="cls-25" d="M472.68,668.63a4.72,4.72,0,1,0-5.72-3.44,4.72,4.72,0,0,0,5.72,3.44Z"
          transform="translate(-71 -57.89)"/>
    <line class="cls-23" x1="436.67" y1="579.8" x2="436.67" y2="610.15"/>
    <path class="cls-25" d="M507.48,633.46A11.46,11.46,0,1,0,496,622a11.46,11.46,0,0,0,11.46,11.46Z"
          transform="translate(-71 -57.89)"/>
    <path class="cls-34"
          d="M460,619.28a5.78,5.78,0,0,1,4.19-2.94,6.76,6.76,0,0,1,.71-4.4,6.84,6.84,0,0,1,12,6.53c-1.25,2.29-4.32,4.34-4.8,5.24-3.6,2.35-7,5-9.8,3.44a5.81,5.81,0,0,1-2.33-7.87Z"
          transform="translate(-71 -57.89)"/>
    <path class="cls-35"
          d="M460,619.28a5.78,5.78,0,0,1,4.19-2.94,6.76,6.76,0,0,1,.71-4.4,6.84,6.84,0,0,1,12,6.53c-1.25,2.29-4.32,4.34-4.8,5.24-3.6,2.35-7,5-9.8,3.44a5.81,5.81,0,0,1-2.33-7.87Z"
          transform="translate(-71 -57.89)"/>
    <path class="cls-34"
          d="M465,628.15c1.46-2.69,11.31-7.7,16.6-5a6.84,6.84,0,1,1-6.53,12c-.22-.12-.41-.28-.62-.42a5.8,5.8,0,0,1-9.45-6.6Z"
          transform="translate(-71 -57.89)"/>
    <path class="cls-35"
          d="M465,628.15c1.46-2.69,11.31-7.7,16.6-5a6.84,6.84,0,1,1-6.53,12c-.22-.12-.41-.28-.62-.42a5.8,5.8,0,0,1-9.45-6.6Z"
          transform="translate(-71 -57.89)"/>
    <path class="cls-36" d="M481.25,617.1l6.84-7.33M482.25,619l9.89-1.46" transform="translate(-71 -57.89)"/>
    <line class="cls-37" x1="389.73" y1="572.29" x2="409.99" y2="560.45"/>
    <path class="cls-20" d="M487.85,610.18" transform="translate(-71 -57.89)"/>
    <path class="cls-20" d="M453.94,612.51" transform="translate(-71 -57.89)"/>
    <path class="cls-38"
          d="M453.57,419.48h17s9.35,0,9.35-6.89-7.15-7.41-7.7-7.41-7.15,1.59-7.15,6.88m16.29,9.7h24s6.32-1.41,6.32-5.68-4.83-5.3-5.21-5.3-4.83,1-4.83,4.27m-37.5,12.8h16.54s9.36,0,9.36,6.89-7.16,7.41-7.71,7.41-7.15-1.58-7.15-6.88"
          transform="translate(-71 -57.89)"/>
    <path class="cls-32" d="M492.14,411.68a4.25,4.25,0,1,0-4.25-4.25,4.25,4.25,0,0,0,4.25,4.25Z"
          transform="translate(-71 -57.89)"/>
    <path class="cls-32" d="M516.87,430.86a4.11,4.11,0,1,0-4.11-4.11,4.11,4.11,0,0,0,4.11,4.11Z"
          transform="translate(-71 -57.89)"/>
    <path class="cls-29" d="M509.44,405.11a7.1,7.1,0,1,0-7.09-7.09,7.09,7.09,0,0,0,7.09,7.09Z"
          transform="translate(-71 -57.89)"/>
    <path class="cls-39" d="M509.44,405.11a7.1,7.1,0,1,0-7.09-7.09,7.09,7.09,0,0,0,7.09,7.09Z"
          transform="translate(-71 -57.89)"/>
    <path class="cls-29" d="M504.84,452a9.46,9.46,0,1,0-9.46-9.46,9.45,9.45,0,0,0,9.46,9.46Z"
          transform="translate(-71 -57.89)"/>
    <path class="cls-30" d="M504.84,452a9.46,9.46,0,1,0-9.46-9.46,9.45,9.45,0,0,0,9.46,9.46Z"
          transform="translate(-71 -57.89)"/>
    <path class="cls-32" d="M466.36,442.42a4.11,4.11,0,1,0-4.11-4.11,4.11,4.11,0,0,0,4.11,4.11Z"
          transform="translate(-71 -57.89)"/>
</svg>